/* XPM */
static char * floor_xpm[] = {
"64 64 74 1",
" 	c #22B04D",
".	c #22B14C",
"+	c #22B14D",
"@	c #22B24D",
"#	c #22B34D",
"$	c #20AF55",
"%	c #33B846",
"&	c #22B04C",
"*	c #22B34C",
"=	c #33B946",
"-	c #22B24C",
";	c #33B945",
">	c #33B845",
",	c #79D32E",
"'	c #33BA45",
")	c #33BA46",
"!	c #32B846",
"~	c #D3F9BC",
"{	c #79D42E",
"]	c #A8E61D",
"^	c #42BF3F",
"/	c #7FD62B",
"(	c #FFA3B1",
"_	c #A8E71C",
":	c #81D72A",
"<	c #7FD72B",
"[	c #42C03F",
"}	c #84D928",
"|	c #9AE122",
"1	c #98E023",
"2	c #25B74B",
"3	c #79E82D",
"4	c #22B74D",
"5	c #21B04D",
"6	c #21FF4A",
"7	c #42C03E",
"8	c #81D82A",
"9	c #84D829",
"0	c #85DA28",
"a	c #4FC73A",
"b	c #99E022",
"c	c #42C13F",
"d	c #9AE221",
"e	c #99E220",
"f	c #97DF22",
"g	c #86DB27",
"h	c #A8E61C",
"i	c #84D929",
"j	c #8DDD24",
"k	c #4FC639",
"l	c #A2E41F",
"m	c #84DA28",
"n	c #9AE121",
"o	c #8FDD24",
"p	c #A2E41E",
"q	c #A9E71C",
"r	c #A8E81B",
"s	c #42C23F",
"t	c #86DA27",
"u	c #4FC63A",
"v	c #AAE919",
"w	c #99E120",
"x	c #9DE21F",
"y	c #8BDB26",
"z	c #97E022",
"A	c #A8E91A",
"B	c #5ACB34",
"C	c #A8E91B",
"D	c #8FE022",
"E	c #89DD25",
"F	c #9BE121",
"G	c #86DA28",
"H	c #8BDC26",
"I	c #A3E41F",
"                             ....++                    +  @#@ @$",
"                               %&................     %+#@@##**.",
"+++++=+++++@+++++++++++++++++=+++  +--------*---...;;  ..  +#*..",
"   %          &&&&&&&&&>&&&&>>&,&&>&&&&&&&&&&&;.-'-')#,++'+   +*",
"  !% ,  %  +-+%      %       ,       %      %   %>&,,~~      *. ",
"   ,........;.......;;.,--'-{*-] , ^ ..    %%&{@+/ ,~~~~, ;..  +",
"..,..].,.;.;'-{--'---{-+      ]]] /% ,  >+++,+  , .~((((~{###*# ",
"...-]]]-{'-+,       ,  ]., % ]]]]],,+++++  ,..].,-~~((((~~@+@   ",
"--+]]]]_,  ,. ] , %   ]]] ,-'+]]]+,  ]-{-'-*-]]].]~~((((~~   @+*",
"  ;.]]_% ,  %]]]*{++@]]]]],, +-]-'..]]]&,&&&]]]]],]~((((~ +#@--#",
" ,   ]./=@~~]]]]],&&>&]]]&&&&,,:&&@]]]]],% % ]]]   _~~~~ ++++@@@",
"*#+,,:/  ~~~~_]]   ,   _ %%    % ,/ _]]%++,+++]+=<,:+~~-,,      ",
" ..  ^%,~((((~]+==+++/,:=++++++@+,=++]'[ ,  /,: %% / ,/         ",
"    .@,~~((((~~%  % %% }%,|  %   %%,1: /      % ,1      ......;.",
"+++++,%~~((((~~%/1  %,  ,         ,  %,,,].,.;..,..].,.'----'--2",
"     ,.]~((((~./;.,.,;.].,];,.;..,;.].{-]]]-{--*--]]].,&&&&>;#34",
"....--]]_~~~~-{-{]-{-'].]]]]-{--'--]]]&]]]]],&&&&]]]]]{+ %  , 5 ",
"--..&>&__]~~,>&,]]]&1]]..]]]],&>>&]]]__,]]]     % ]]]  %.@#{++]*",
"&.#@,   ] %    ]]]]]/,]_.]]]    ,% ]]]+--] %   , ..] %%%6,+ %]]]",
"      ,1:.].,.[.]]]]],,_.;]-'--{<+] ] ^,,:7  %   ,,:&++,@   ]]]]",
"   .....;]]].1.'-]]_-<{8{/:   %  ]]]:,  [%%/,--+++==+,1 @]*<@]]]",
"@#....-*]]]]]{,/,:] ^% 9 ,} ,/% ]]]_]{{0a+b=+0 +c-----##]]]@, ]+",
" ..--+ ^ ]]]  ;;,d:,/,%% ,  ;*{)+]]]+  %e&,,&>&>>&,&&)#]]]]]1{8*",
"##+  ;,   ] %  , &;.1,+]@,+=+,, ]&]&^&.f, ] f][,,%    % ]]]-..= ",
"  *.%%%,,,g+++,++] , %]]]],, % ]]]:,   , ]]]]h_,,#]@{,%%+]-=+@++",
"@   %,@@+ % ,,  ]]];,]]]]]]-{*]]]]],,,  ]]]]]h]],]]]#<#i{8#*@@@@",
"   )<+,] /.;...]]_]]<-]]]]]],% ]]]    &c]]]]]]]+]]]]]j+{@)){{@#@",
"....,.]]].,--''-__]1  ^]]_] ,   ] >+++f% ]]]k]+[+]]_[i+f++[++ +#",
"...,.]]]]]/% ,   ].% 1,: ] %.#<{8++   ,.ff_,<:,+++_)/l+]=,@=++@+",
"-*--=]]]],;; , ,d: ];{*m,n,+=   =@{,  +@{/o lb /1,:,f ]]]f,[    ",
"   ,]]]]]/ , .##@)_]] ,+#)#<<@{#-'@+*@@+++/+{,+++#<@,]]]]_p     ",
".  % ]]q@#{++] ,+r_]]]{)###+{#*##@*######{**]*{*'*..]]]]]]f....-",
"  ,+@+]=^,,+]]] / ]]] ##+++{@@]@{#)###s####]]]#{#+ ]]]]]]''---+#",
"+++ ,,t    ]]]]_,,+]]),+=+++ ]]]+{#+[=)@+#]]]]],++'f]]]q&7&&&& @",
"  .. %^ 1,%%]_]  ,,]]] ,    ]]]]],@ku@f#@u ]]]  %,. ,~~v 1,%    ",
"---...,..,..;r / %]]]]],   % ]]]  %^w,,+/)+#]+[++++{~~~~]fp++@  ",
"&..--{'*]'{<<n.;.;.]]]....,%  ] %  l, ] f 0,:)) ,  ~((((~],     ",
"    >&&]]]>/,<'_|1-']-'--'..,,t...,,.]]],w% % 1,@@~~((((~~*--@+#",
"#@@=% ]]]_]1% ]]]&1,:&&&;;-{'-c-{{--]]]]]p.. ,**]*~~((((~~'*@#+-",
"####{)#_]]{##]]]]],,%%,, , >>&,&&>&]]]]]]{*.###]]]#~((((~/@###+ ",
"++@{{@_)]]c{_]]]]]] ,   ,++],, %  w%]]]_7..##)]]]]]{~~~~]1,   @+",
"##@  ]]]q]]]_]]]]_]],.....]]].].{{<@f_]%%  %#)#]]]#<#~~], %++#*-",
"++ +]]]]_]r]]]_t]]]......]]]]]]] , ,dxy,fzc%,,##_#<=+]]]){#++   ",
"  .;.]]]]A_.1];B.~~''-*-'+]]]]]]],   /;{1, ,+@{{8+==]]q]],     .",
"..,..,]C]_]]18-1~~~~   , .._ ]]]  &+,@+] ,,% ] ,%%,|.]_],,@@**..",
"..--{{DE]h]+C%1~((((~%   ,1:&@]@=++   ]]]+,+]]]+{+1++]],%% ++*..",
"-+   ,^w,] ]_]~~((((~~+=+@+=,1F      ]]]]],]]]]],   ]]q ,   +##.",
" ..   f1,]]h]C~~((((~~        % ,,  % ]]] % ]]]    ]]]_]1,.# + #",
"    &-{+]]]]h_/~((((~[.,..;;....;..,...]./...].[..;;]]]---##+@  ",
"+++=+ %]]]]]h{c-~~~~{{---'---*'------{{8---<{G*--{'[.]&>>.##@@@@",
"&>&&>&7]]]]]n>>]]~~_1&&]>/&/&>^&,&&>&&&>&,/>>}&1/>;1{:      +# #",
"%% /%f} ]]][% |,]]],, ]]],,   ,            , ,  %%,, _=1{)+@+@##",
" ,  ,, ff]&)@1++]],=)]]]]],]+1 %]+,+=+++++,+,]@]@|@)]]]#{#@ @-++",
",@+]+,]/1H=ff +]]]+,=+]]]+]]]+,]]]+,++++++++]]]]]#{]]]]]{+++++++",
"  ]]]]]] / ,, ]]]]]I,  ] ]]]]]]]]]],       ]]]]]]]_]]]]#+ +@#@  ",
".]]]]]]]],   % ]]]   ,,:% ]]]% ]]]        % _]]]]]]]]],%+@++   .",
"'.]_]]]]....,...].;..../.,,],;..].;......,.,.].]%=]]]: ...  +**+",
".-{]-']-'*----{{8--------{{8-*{{8----------{{n{n+  ].[.,,..+  @#",
" ,,:,,:&&&&&&&&&>&,,&&&&&&&>&,,&>&,,&&&&&&&&&>&/,11:........    ",
"+  % ,/ ,,                                        .;-{{....     ",
"           &.....--*--      ..................-----+  ....-#@..+",
"*+++++++++##@*--+       .............-----*--+     ..    &.   .+",
"                ..     .....---*----+        ..       .-.#    . ",
"    &&&&&&&&       &.@.*---+        ..          &-.++++      ..+"};
