<svg version="1.1" xmlns="http://www.w3.org/2000/svg" xmlns:xlink="http://www.w3.org/1999/xlink" width="153.06019" height="102.52244" viewBox="0,0,153.06019,102.52244"><g transform="translate(-132.03563,-187.73038)"><g data-paper-data="{&quot;isPaintingLayer&quot;:true}" fill-rule="nonzero" stroke="none" stroke-linecap="butt" stroke-linejoin="miter" stroke-miterlimit="10" stroke-dasharray="" stroke-dashoffset="0" style="mix-blend-mode: normal"><path d="M253.90405,246.34582c-1.52614,-3.04795 -2.35084,-6.63442 -2.35084,-10.05181c0,-2.25929 0.13035,-5.99895 1.93028,-7.72242c-0.4563,-0.05873 -0.95174,-0.0858 -1.49552,-0.08581h-0.18475c0,0 -0.17939,0 -0.23425,-0.15196c-0.05509,0.15272 -0.23526,0.15195 -0.23526,0.15195l-0.07787,-0.00033c-1.50564,-0.00646 -2.93701,-0.23389 -4.46104,-0.23389c-3.49216,0 -6.9995,0.09287 -10.48945,-0.03584c-2.93164,-0.11183 -5.68559,0.24561 -8.57103,0.26888l0.01534,0.10209c0.04571,0.13375 0.0829,0.27116 0.11129,0.41052c0.10937,0.10223 0.05966,0.24371 0.04475,0.27904c0.01427,0.12139 0.02189,0.24339 0.02268,0.3649c0,0 0,0.25 -0.25,0.25c-0.01038,0 -0.02032,-0.00043 -0.02985,-0.00126c-0.73957,2.16417 -0.6518,6.05035 -0.65632,8.09785c-0.00406,3.18722 -1.69261,7.24953 -3.9227,9.4971c-1.88647,1.89116 -3.85829,3.38701 -6.26413,4.61924l-0.02425,0.01204c0,0 -0.01436,0.00713 -0.03761,0.01414c0.03395,0.9313 0.12186,1.79995 0.2687,2.53283c0.62999,3.20448 0.55597,6.68439 1.78407,9.74936c0.10105,-0.18748 0.30874,-0.1044 0.30874,-0.1044v0.00001c2.99631,1.19852 5.30556,1.62167 8.56003,1.62167c3.54073,0 6.94542,0.50022 10.45899,0.68508c3.46366,0.07609 6.94187,0.01758 10.45056,0.01758c3.0711,0 7.29588,-0.02121 10.10743,-1.36185c0.47929,-0.16404 0.93452,-0.24096 1.37368,-0.42641c0.2733,-0.74503 0.47538,-1.53288 0.59189,-2.3748c0.66437,-2.99418 0.73474,-6.08574 0.74209,-9.15219c-0.0904,-0.01012 -0.15637,-0.07335 -0.15637,-0.07335l-0.19427,-0.20172c-2.71635,-1.40111 -4.60848,-2.74197 -6.46922,-5.1544c-0.08975,-0.21395 -0.17907,-0.42983 -0.26762,-0.64749c-0.1609,-0.29177 -0.29513,-0.59004 -0.39816,-0.89434zM254.26785,228.01219c0,0 0.22361,-0.1118 0.33541,0.1118c0.03286,0.06573 0.03675,0.1218 0.02585,0.16821c1.68702,0.47039 2.86534,1.5204 4.05944,3.40784c1.07541,3.07492 2.69362,6.67527 2.73465,9.95535c0.05313,3.43112 0.46733,6.92223 0.46733,10.42684c0,0.23061 0.00005,0.46149 -0.00008,0.69258c0.00629,0.02777 0.00728,0.05893 -0.00006,0.09346c-0.00248,3.24167 -0.04545,6.52306 -0.75078,9.69005c-0.09742,0.68723 -0.24935,1.34017 -0.44871,1.96434c0.06914,-0.00738 0.15476,0.0115 0.22234,0.11546h0.00001c0.13626,0.2096 -0.07334,0.34586 -0.07334,0.34586l-0.06944,0.04514c-0.10738,0.06921 -0.2147,0.12867 -0.32232,0.18092c-0.9381,2.42159 -2.59718,4.41302 -4.51903,6.33094c-2.07617,2.00913 -7.17724,3.03294 -10.04371,3.09757c-3.54759,0.06502 -6.93651,0.16661 -10.47264,-0.12362c-3.27122,-0.85325 -7.26377,0.11391 -10.24958,-1.8117c-3.80308,-1.47088 -5.00705,-4.31689 -6.65404,-7.68591c-1.3846,-3.23234 -1.31071,-6.85629 -1.98744,-10.25725c-0.55828,-2.8572 -0.29263,-7.71983 0.61967,-10.4581c0.15805,-3.38274 1.88562,-7.04871 4.25469,-9.44089c1.40104,-2.79508 4.2577,-3.83774 5.59027,-6.50287c0,0 0.06947,-0.13894 0.20842,-0.14302c0.00379,-0.06521 0.02558,-0.11188 0.05483,-0.14528c0.03126,-0.03765 0.07986,-0.06891 0.155,-0.08095c0.02804,-0.0045 0.0534,-0.0053 0.07634,-0.00318c2.98012,-0.00306 5.82139,-0.37709 8.84287,-0.2697c3.48378,0.12855 6.98502,0.0355 10.47102,0.0355c1.52337,0 2.95941,0.2275 4.46317,0.23389l0.07787,0.00033c0,0 0.17847,0.00076 0.23318,0.1518c0.05493,-0.1518 0.23419,-0.1518 0.23419,-0.1518h0.18475c0.7548,0 1.42593,0.05203 2.03311,0.16579c0.07967,-0.04983 0.16191,-0.09635 0.24678,-0.13938zM253.90911,229.03129c-1.15434,2.88586 -1.38745,5.60163 -1.38745,8.68482c0,3.13393 1.03628,6.36859 2.21415,9.2742c1.27051,2.32384 4.31549,4.20492 6.65473,5.42801c0,-0.11208 -0.00001,-0.22412 -0.00001,-0.3361c0,-3.50498 -0.41204,-6.99108 -0.46731,-10.42237c0.03396,-3.16237 -1.66222,-6.77388 -2.68477,-9.74209c-1.14915,-1.79286 -2.24217,-2.75593 -3.84622,-3.17343c-0.01918,0.11901 -0.12238,0.20991 -0.2468,0.20991c-0.0922,0 -0.17274,-0.04991 -0.21608,-0.12419c-0.00523,0.00445 -0.01045,0.00892 -0.01565,0.01341c0.03344,0.09278 -0.00458,0.18783 -0.00458,0.18783zM258.86903,265.73424c-2.91277,1.33178 -7.12644,1.39814 -10.29444,1.39814c-3.51471,0 -6.99973,0.05865 -10.46919,-0.01793c-3.50788,-0.18415 -6.90571,-0.68474 -10.44036,-0.68474c-3.3001,0 -5.67755,-0.43402 -8.71163,-1.64382c0.0032,0.00725 0.00641,0.0145 0.00963,0.02175c1.60902,3.28935 2.72623,5.99717 6.42762,7.45034c2.9262,1.88847 6.88721,0.93918 10.10498,1.76387c3.50529,0.2745 6.86155,0.19779 10.37937,0.11681c2.72817,-0.05147 7.7285,-1.04305 9.70365,-2.9543c1.75863,-1.75514 3.29943,-3.56475 4.23448,-5.73222c-0.30458,0.09347 -0.61676,0.16962 -0.9441,0.2821zM221.80326,235.15124c-2.32653,2.40651 -3.98518,5.87726 -4.17043,9.24283c-0.60688,1.84703 -0.93796,4.68631 -0.90298,7.19036c2.31411,-1.14387 4.18965,-2.65222 5.98528,-4.45233c2.13977,-2.15235 3.77318,-6.085 3.77708,-9.14525c0.00518,-2.34615 -0.06424,-6.62806 0.90041,-8.79245c-0.02081,-0.12412 -0.05055,-0.24676 -0.08889,-0.36595c-1.40888,2.54717 -4.13704,3.5971 -5.50047,6.32279zM253.00459,230.06962c-0.83747,1.69963 -0.94006,4.17794 -0.95035,5.85756c0.08057,-2.01696 0.3295,-3.91752 0.95035,-5.85756z" fill="#000000" stroke-width="0.5"/><path d="M254.35221,247.23956c0.08854,0.21766 0.17785,0.43564 0.2676,0.64959c1.86074,2.41243 3.75133,3.76418 6.46768,5.16529l0.19419,0.20203c0,0 0.06595,0.0633 0.15635,0.07342c-0.00735,3.06645 -0.08505,6.17384 -0.74942,9.16802c-0.11651,0.84192 -0.32113,1.63311 -0.59443,2.37814c-0.43916,0.18545 -0.89588,0.26409 -1.37517,0.42813c-2.81155,1.34064 -7.05113,1.37301 -10.12223,1.37301c-3.50869,0 -7.01153,0.06364 -10.47519,-0.01245c-3.51357,-0.18486 -6.94203,-0.69245 -10.48276,-0.69245c-3.25447,0 -5.57567,-0.43343 -8.57198,-1.63195v-0.00001c0,0 -0.20784,-0.08325 -0.30889,0.10423c-1.2281,-3.06497 -1.16327,-6.5614 -1.79326,-9.76588c-0.14684,-0.73288 -0.23617,-1.60681 -0.27012,-2.53811c0.02325,-0.00701 0.03761,-0.01415 0.03761,-0.01415l0.02425,-0.01205c2.40584,-1.23223 4.37659,-2.73818 6.26306,-4.62934c2.23009,-2.24757 3.92924,-6.34086 3.9333,-9.52808c0.00452,-2.0475 -0.07114,-5.94479 0.66843,-8.10896c0.00953,0.00083 0.01953,0.00122 0.0299,0.00122c0.25,0 0.25069,-0.25044 0.25069,-0.25044c-0.00079,-0.12152 -0.00806,-0.24373 -0.02233,-0.36512c0.01491,-0.03532 0.06484,-0.17694 -0.04453,-0.27917c-0.02839,-0.13936 -0.06535,-0.27691 -0.11106,-0.41066l-0.01526,-0.10213c2.88544,-0.02327 5.65795,-0.38729 8.58959,-0.27547c3.48995,0.12871 7.0231,0.03896 10.51526,0.03896c1.52403,0 2.96377,0.23176 4.46941,0.23822l0.07799,0.00041c0,0 0.18038,0.00091 0.23547,-0.15181c0.05486,0.15196 0.23476,0.1523 0.23476,0.1523l0.18503,0.00019c0.54378,0 1.04142,0.02866 1.49771,0.08739c-1.79993,1.72347 -1.92333,5.46958 -1.92333,7.72887c0,3.4174 0.83725,7.03351 2.36339,10.08146c0.10303,0.3043 0.23739,0.60559 0.39829,0.89736z" data-paper-data="{&quot;noHover&quot;:false,&quot;origItem&quot;:[&quot;Path&quot;,{&quot;applyMatrix&quot;:true,&quot;segments&quot;:[[[258.7582,250.22374],[0.10303,0.3043],[-1.52614,-3.04795]],[[256.40736,240.17193],[0,3.4174],[0,-2.25929]],[[258.33764,232.4495],[-1.79993,1.72347],[-0.4563,-0.05873]],[[256.84212,232.3637],[0.54378,0],[0,0]],[256.65737,232.3637],[[256.42312,232.21174],[0.05486,0.15196],[-0.05509,0.15272]],[256.18786,232.36369],[[256.10999,232.36336],[0,0],[-1.50564,-0.00646]],[[251.64895,232.12947],[1.52403,0],[-3.49216,0]],[[241.1595,232.09363],[3.48995,0.12871],[-2.93164,-0.11183]],[[232.58847,232.36251],[2.88544,-0.02327],[0,0]],[[232.6038,232.46459],[0,0],[0.04571,0.13375]],[[232.7151,232.87511],[-0.02839,-0.13936],[0.10937,0.10223]],[[232.75984,233.15415],[0.01491,-0.03532],[0.01427,0.12139]],[[232.78252,233.51905],[-0.00079,-0.12152],[0,0]],[[232.53252,233.76905],[0.25,0],[-0.01038,0]],[[232.50267,233.76779],[0.00953,0.00083],[-0.73957,2.16417]],[[231.84635,241.86564],[0.00452,-2.0475],[-0.00406,3.18722]],[[227.92365,251.36274],[2.23009,-2.24757],[-1.88647,1.89116]],[[221.65952,255.98198],[2.40584,-1.23223],[0,0]],[221.63527,255.99402],[[221.59766,256.00816],[0.02325,-0.00701],[0.03395,0.9313]],[[221.86636,258.54099],[-0.14684,-0.73288],[0.62999,3.20448]],[[223.65043,268.29035],[-1.2281,-3.06497],[0.10105,-0.18748]],[223.95917,268.18595],[[223.95917,268.18596],[0,0],[2.99631,1.19852]],[[232.5192,269.80763],[-3.25447,0],[3.54073,0]],[[242.97819,270.49271],[-3.51357,-0.18486],[3.46366,0.07609]],[[253.42875,270.51029],[-3.50869,0],[3.0711,0]],[[263.53618,269.14844],[-2.81155,1.34064],[0.47929,-0.16404]],[[264.90986,268.72203],[-0.43916,0.18545],[0.2733,-0.74503]],[[265.50175,266.34723],[-0.11651,0.84192],[0.66437,-2.99418]],[[266.24384,257.19504],[-0.00735,3.06645],[-0.0904,-0.01012]],[266.08747,257.12169],[[265.8932,256.91997],[0,0],[-2.71635,-1.40111]],[[259.42398,251.76557],[1.86074,2.41243],[-0.08975,-0.21395]],[[259.15636,251.11808],[0.08854,0.21766],[-0.1609,-0.29177]]],&quot;closed&quot;:true}]}" fill="#2f41ff" stroke-width="0.5"/><path d="M253.90114,228.79506c0.0052,-0.00449 0.0105,-0.00898 0.01573,-0.01342c0.04334,0.07428 0.12461,0.12401 0.21681,0.12401c0.12443,0 0.22879,-0.09117 0.24797,-0.21018c1.60404,0.4175 2.71497,1.37998 3.86412,3.17284c1.02255,2.96821 2.75966,6.6423 2.7257,9.80467c0.05527,3.43129 0.43705,6.95093 0.43705,10.45591c0,0.11198 -0.00044,0.22418 -0.00044,0.33627c-2.33924,-1.22309 -5.41814,-3.10374 -6.68864,-5.42758c-1.17787,-2.90561 -2.23977,-6.21465 -2.23977,-9.34858c0,-3.08319 0.26235,-5.82017 1.41669,-8.70603c0,0 0.03823,-0.0951 0.00479,-0.18788z" data-paper-data="{&quot;noHover&quot;:false,&quot;origItem&quot;:[&quot;Path&quot;,{&quot;applyMatrix&quot;:true,&quot;segments&quot;:[[[258.76326,232.90921],[0,0],[-1.15434,2.88586]],[[257.37581,241.59403],[0,-3.08319],[0,3.13393]],[[259.58996,250.86823],[-1.17787,-2.90561],[1.27051,2.32384]],[[266.24469,256.29623],[-2.33924,-1.22309],[0,-0.11208]],[[266.24468,255.96014],[0,0.11198],[0,-3.50498]],[[265.77737,245.53777],[0.05527,3.43129],[0.03396,-3.16237]],[[263.0926,235.79568],[1.02255,2.96821],[-1.14915,-1.79286]],[[259.24638,232.62225],[1.60404,0.4175],[-0.01918,0.11901]],[[258.99958,232.83216],[0.12443,0],[-0.0922,0]],[[258.78349,232.70797],[0.04334,0.07428],[-0.00523,0.00445]],[[258.76784,232.72138],[0.0052,-0.00449],[0.03344,0.09278]]],&quot;closed&quot;:true}]}" fill="#d4cd1f" stroke-width="0.5"/><path d="M227.32466,228.78304c0.03834,0.11919 0.06895,0.24223 0.08975,0.36636c-0.96465,2.16439 -0.87231,6.46891 -0.87749,8.81507c-0.0039,3.06025 -1.67731,7.06507 -3.81708,9.21742c-1.79563,1.80011 -3.69709,3.30396 -6.0112,4.44783c-0.03498,-2.50405 0.28099,-5.35425 0.88787,-7.20128c0.18525,-3.36557 1.87769,-6.92061 4.20422,-9.32712c1.36343,-2.72569 4.11506,-3.77109 5.52393,-6.31826z" data-paper-data="{&quot;noHover&quot;:false,&quot;origItem&quot;:[&quot;Path&quot;,{&quot;applyMatrix&quot;:true,&quot;segments&quot;:[[[453.31482,478.05832],[2.72687,-5.45139],[-4.65306,4.81302]],[[444.97396,496.54398],[0.3705,-6.73114],[-1.21376,3.69406]],[[443.168,510.9247],[-0.06996,-5.0081],[4.62822,-2.28774]],[[455.13856,502.02004],[-3.59126,3.60022],[4.27954,-4.3047]],[[462.69272,483.72954],[-0.0078,6.1205],[0.01036,-4.69231]],[[464.49354,466.14463],[-1.9293,4.32879],[-0.04161,-0.24825]],[[464.31576,465.41274],[0.07669,0.23838],[-2.81775,5.09434]]],&quot;closed&quot;:true}]}" fill="#d4cd1f" stroke-width="0.5"/><path d="M258.81995,265.74372c0.32734,-0.11248 0.73766,-0.20783 1.04224,-0.3013c-0.93505,2.16747 -2.47516,3.99197 -4.23379,5.74711c-1.97515,1.91125 -6.98453,2.92673 -9.7127,2.9782c-3.51782,0.08098 -6.94736,0.16654 -10.45265,-0.10796c-3.21777,-0.82469 -7.19524,0.09636 -10.12144,-1.79211c-3.70139,-1.45317 -4.81827,-4.18186 -6.42729,-7.47121c-0.00322,-0.00725 0.09102,0.00794 0.08782,0.00069c3.03408,1.2098 5.31444,1.61991 8.61454,1.61991c3.53465,0 6.95724,0.46919 10.46512,0.65334c3.46946,0.07658 7.02651,0.04953 10.54122,0.04953c3.168,0 7.28416,-0.0444 10.19693,-1.37618z" data-paper-data="{&quot;noHover&quot;:false,&quot;origItem&quot;:[&quot;Path&quot;,{&quot;applyMatrix&quot;:true,&quot;segments&quot;:[[[527.44636,539.22432],[0,0],[-5.82554,2.66356]],[[506.85748,542.0206],[6.336,0],[-7.02942,0]],[[485.9191,541.98474],[6.93892,0.15316],[-7.01576,-0.3683]],[[465.03838,540.61526],[7.0693,0],[-6.6002,0]],[[447.61512,537.32762],[6.06816,2.4196],[0.0064,0.0145]],[[447.63438,537.37112],[-0.00644,-0.0145],[3.21804,6.5787]],[[460.48962,552.2718],[-7.40278,-2.90634],[5.8524,3.77694]],[[480.69958,555.79954],[-6.43554,-1.64938],[7.01058,0.549]],[[501.45832,556.03316],[-7.03564,0.16196],[5.45634,-0.10294]],[[520.86562,550.12456],[-3.9503,3.8225],[3.51726,-3.51028]],[[529.33458,538.66012],[-1.8701,4.33494],[-0.60916,0.18694]],[[527.44638,539.22432],[0.65468,-0.22496],[0,0]]],&quot;closed&quot;:true,&quot;fillColor&quot;:[0,0,0],&quot;strokeWidth&quot;:0.5}]}" fill="#d4cd1f" stroke-width="0.25"/><path d="M216.88252,206.9783c0.01178,-0.01402 0.02373,-0.02615 0.03575,-0.03658c-1.91699,-1.61012 -3.96576,-2.36322 -6.66836,-2.36322c-0.90658,0 -2.06186,-0.19611 -2.94392,-0.00637c-1.65237,0.35543 -5.49391,4.06841 -6.7086,1.15204c-2.31045,-3.56096 1.58955,-6.49193 4.09721,-8.58104c0.35722,-0.3515 0.77469,-0.68236 1.19561,-0.95582c3.5576,-2.31127 2.43114,2.90237 3.39479,3.96546c0.54748,0.60398 1.39103,0.8467 1.90697,1.43946c1.6647,0.46066 3.95077,1.4354 5.99258,1.34865c0.01586,-0.0094 0.02659,-0.01392 0.02659,-0.01392l0.11944,-0.05027c0.5674,-0.2351 1.12998,-0.34455 1.70741,-0.39513c0.00362,-0.00187 0.00724,-0.00374 0.01086,-0.00562l0.02123,-0.01061c0,0 0.12184,-0.06092 0.23061,-0.00289c0.188,-0.01108 0.37786,-0.01707 0.57024,-0.02023c1.34282,-0.6818 2.51264,-1.80631 3.63551,-3.01196c1.12117,-1.80751 1.33136,-3.24622 1.99583,-5.25037c0.00589,-0.01777 0.01239,-0.03578 0.01945,-0.054c-0.02452,0.02474 -0.04896,0.04928 -0.0733,0.07362c0,0 -0.17678,0.17678 -0.35355,0c-0.17678,-0.17678 0,-0.35355 0,-0.35355c1.8732,-1.8732 4.2751,-4.87987 7.17493,-5.19656c2.50577,-0.95739 7.74611,-1.16775 10.43285,-0.6264c1.68525,0.34689 3.93001,0.06609 5.4615,0.95539c1.41301,0.8205 2.71459,1.9704 4.14609,2.71108c2.33196,2.23313 3.45461,6.35278 4.79433,8.99265c0.4075,0.815 0.77442,1.85077 1.49851,2.39181c1.39496,1.04233 5.57483,-0.95554 6.74223,-1.7161c2.66738,-1.39647 6.25979,-3.8926 6.28628,-7.31287c0.00027,-0.71835 -0.2258,-1.90228 0.0146,-2.57433c1.23863,-3.46271 5.27351,-1.53065 7.02288,0.09664c2.81504,2.76641 2.9619,7.61233 -1.86855,7.62412c-1.12915,-0.01436 -2.04017,-1.20228 -3.20181,-0.94262c-2.04651,0.45744 -3.95204,2.75844 -5.77206,3.70137c-2.12217,1.39988 -3.79034,3.07445 -5.84839,4.43573c-0.91651,0.60622 -1.77342,0.46611 -1.79165,1.68391c-0.05314,3.25183 0.93675,6.77631 0.93675,10.23557c-0.03597,3.48803 -2.43752,6.65623 -3.28265,9.8998c-2.00614,1.60661 -3.92246,3.11287 -6.40467,3.94264c-0.89671,0.29976 -1.99879,0.3052 -2.83779,0.73192c-2.64121,1.28732 -7.40201,1.44493 -10.30484,1.44493c-3.53174,0 -6.93918,-0.14869 -10.40109,-0.4664c-2.77444,-1.18072 -4.53421,-6.09657 -5.83499,-8.69814c-1.5588,-3.1176 -2.42276,-6.59926 -2.42276,-10.08898c0,-2.1688 0.48307,-4.3628 -0.10332,-5.96013c-0.92316,-0.49165 -1.7993,-1.09428 -2.61243,-1.77563l-0.00577,-0.00485c0,0 -0.19138,-0.16086 -0.03052,-0.35223zM219.99636,208.78933c0,0 0.22361,0.1118 0.1118,0.33541c-0.01498,0.02995 -0.03196,0.05388 -0.05014,0.07287c0.46074,1.64673 0.07653,3.77785 0.07653,5.87353c0,3.4162 0.84456,6.81453 2.36998,9.86537c1.20174,2.40349 2.95164,7.35145 5.50976,8.43685c3.41787,0.31001 6.79071,0.45129 10.27911,0.45129c2.76781,0 7.59374,-0.11187 10.08269,-1.39287c3.24898,-1.55755 6.00089,-2.33094 9.04679,-4.50126c0.73627,-3.13517 3.24344,-6.25909 3.20047,-9.62516c0,-3.50672 -0.8964,-6.92009 -0.93673,-10.24007c0.03797,-1.88729 2.82135,-2.40893 4.1269,-3.30808c1.27928,-0.88106 2.38104,-2.32936 3.76121,-3.23898c1.88354,-0.95116 3.79598,-3.29099 5.91578,-3.75762c1.2976,-0.28564 2.12202,0.95011 3.30982,0.93078c4.35382,0.00547 4.07222,-4.31131 1.52339,-6.76253c-1.46249,-1.38301 -5.12195,-3.37781 -6.20637,-0.29092c-0.21422,0.6098 0.01448,1.75183 0.01422,2.40913c-0.02995,3.59793 -3.71064,6.26809 -6.53439,7.74269c-1.44651,0.92934 -5.56203,2.8282 -7.27943,1.69478c-0.81321,-0.53669 -1.22983,-1.71767 -1.6604,-2.5788c-1.25474,-2.55414 -2.4195,-6.67311 -4.63826,-8.80976c-1.41379,-0.73374 -2.71849,-1.8629 -4.10784,-2.68625c-1.4471,-0.85756 -3.70162,-0.57158 -5.30857,-0.89681c-2.62144,-0.5423 -7.76691,-0.31198 -10.21529,0.62247c-1.90345,0.21271 -3.58555,1.63578 -5.03687,3.09497c0.02664,0.03598 0.0449,0.08528 0.0449,0.15283c0,0.25 -0.25,0.25 -0.25,0.25l0.01327,-0.20848c-0.00089,0.00091 -0.00178,0.00182 -0.00267,0.00273c-0.10816,0.77169 -0.86809,0.95878 -1.1781,1.90659c-0.66481,2.03252 -0.94233,3.55911 -2.07427,5.39992c-1.02472,1.08858 -2.10547,2.13436 -3.31281,2.8677c0.00771,0.02505 0.01216,0.05395 0.01216,0.0873c0,0.25 -0.25,0.25 -0.25,0.25c-0.12593,0 -0.25077,0.00009 -0.37463,0.00106c-0.18535,0.09215 -0.37373,0.17645 -0.56538,0.25205c0.01733,-0.08022 0.03413,-0.16044 0.05037,-0.24065c-0.09521,0.0039 -0.18993,0.00901 -0.28424,0.01573c-2.57803,1.17866 -5.88736,-0.23271 -8.25572,-0.95315c-0.54542,-0.61716 -1.474,-0.87385 -2.01826,-1.53608c-0.74609,-0.90781 0.11136,-5.82713 -2.73783,-3.87441c-0.39878,0.27331 -0.79432,0.56921 -1.13672,0.90992c-2.33212,1.93652 -6.14138,4.66904 -3.99026,7.97879c0.94657,2.35145 4.79904,-1.08044 6.1535,-1.40733c0.90198,-0.21769 2.12519,-0.00637 3.05608,-0.00637c3.21404,0 5.60254,1.04867 7.85764,3.27287c0.05029,-0.12716 0.0999,-0.25453 0.14875,-0.38208c0.84408,0.43855 1.35097,1.04758 1.64694,1.77368c0.03099,0.01561 0.06203,0.03107 0.09312,0.04636zM218.25505,207.54502c0.01615,0.05099 0.01884,0.11451 -0.02104,0.18086c0.27731,0.19813 0.56142,0.38651 0.8511,0.56244c-0.21414,-0.28001 -0.48626,-0.5296 -0.83006,-0.7433z" fill="#000000" stroke-width="0.5"/><path d="M241.18295,214.40004c0,-0.13807 0.11193,-0.25 0.25,-0.25c0.13807,0 0.25,0.11193 0.25,0.25c0,0.13807 -0.11193,0.25 -0.25,0.25c-0.13807,0 -0.25,-0.11193 -0.25,-0.25z" fill="#d4cd1f" stroke-width="0.5"/><path d="M219.94666,208.78387c-0.03109,-0.01529 -0.06212,-0.03084 -0.09311,-0.04645c-0.29597,-0.7261 -0.80234,-1.33862 -1.64642,-1.77717c-0.04885,0.12755 -0.09861,0.2558 -0.1489,0.38296c-2.2551,-2.2242 -4.54556,-3.25344 -7.7596,-3.25344c-0.93089,0 -2.15388,-0.21232 -3.05586,0.00537c-1.35446,0.32689 -5.30538,3.74154 -6.25195,1.39009c-2.15112,-3.30975 1.66096,-6.05318 3.99308,-7.9897c0.3424,-0.34071 0.73857,-0.63818 1.13735,-0.91149c2.84919,-1.95272 2.08519,3.00199 2.83128,3.9098c0.54426,0.66223 1.47325,0.91766 2.01867,1.53482c2.36836,0.72044 5.58318,2.09931 8.16121,0.92065c0.09431,-0.00672 0.28236,0.02407 0.37757,0.02017c-0.01624,0.08021 -0.12647,0.12479 -0.1438,0.20501c0.19165,-0.0756 0.38039,-0.16083 0.56574,-0.25298c0.12386,-0.00097 0.24882,-0.00136 0.37475,-0.00136c0,0 0.25029,-0.0007 0.25029,-0.2507c0,-0.03335 -0.00438,-0.06241 -0.01209,-0.08746c1.20734,-0.73334 2.29289,-1.78783 3.31761,-2.87641c1.13194,-1.84081 1.41809,-3.37699 2.0829,-5.40951c0.31001,-0.94781 1.07364,-1.13779 1.1818,-1.90948c0.00089,-0.00091 0.05946,0.07987 0.06035,0.07896l-0.07118,0.12695c0,0 0.25063,-0.00044 0.25063,-0.25044c0,-0.06755 -0.01817,-0.11691 -0.04481,-0.15289c1.45132,-1.45919 3.1448,-2.88811 5.04825,-3.10082c2.44838,-0.93445 7.61594,-1.16748 10.23738,-0.62518c1.60695,0.32523 3.87299,0.04183 5.32009,0.89939c1.38935,0.82335 2.70376,1.95716 4.11755,2.6909c2.21876,2.13665 3.39971,6.27183 4.65445,8.82597c0.43057,0.86113 0.85079,2.04911 1.664,2.5858c1.7174,1.13342 5.73982,-0.72901 7.18633,-1.65835c2.82375,-1.4746 6.50729,-4.13838 6.53724,-7.73631c0.00026,-0.6573 -0.22702,-1.79684 -0.0128,-2.40664c1.08442,-3.08689 4.83127,-1.14053 6.29376,0.24248c2.54883,2.45122 2.83312,6.77443 -1.5207,6.76896c-1.1878,0.01933 -2.10602,-1.18187 -3.40362,-0.89623c-2.1198,0.46663 -3.93859,2.77146 -5.82213,3.72262c-1.38017,0.90962 -2.48083,2.3615 -3.76011,3.24256c-1.30555,0.89915 -4.08782,1.42612 -4.12579,3.31341c0.04033,3.31998 0.93438,6.75774 0.93438,10.26446c0.04297,3.36607 -2.47568,6.50825 -3.21195,9.64342c-3.0459,2.17032 -5.81573,2.95537 -9.06471,4.51292c-2.48895,1.281 -7.33691,1.39591 -10.10472,1.39591c-3.4884,0 -6.88095,-0.14726 -10.29882,-0.45727c-2.55812,-1.0854 -4.32333,-6.04638 -5.52507,-8.44987c-1.52542,-3.05084 -2.37962,-6.47013 -2.37962,-9.88633c0,-2.09568 0.38343,-4.24114 -0.07731,-5.88787c0.01818,-0.01899 0.03518,-0.04311 0.05016,-0.07306c0.11181,-0.22361 -0.11172,-0.3362 -0.11172,-0.3362z" data-paper-data="{&quot;noHover&quot;:false,&quot;origItem&quot;:[&quot;Path&quot;,{&quot;applyMatrix&quot;:true,&quot;segments&quot;:[[218.59103,210.19466],[[218.70283,210.53007],[0.11181,-0.22361],[-0.01498,0.02995]],[[218.65269,210.60294],[0.01818,-0.01899],[0.46074,1.64673]],[[218.72922,216.47647],[0,-2.09568],[0,3.4162]],[[221.0992,226.34184],[-1.52542,-3.05084],[1.20174,2.40349]],[[226.60896,234.77869],[-2.55812,-1.0854],[3.41787,0.31001]],[[236.88807,235.22998],[-3.4884,0],[2.76781,0]],[[246.97076,233.83711],[-2.48895,1.281],[3.24898,-1.55755]],[[256.01755,229.33585],[-3.0459,2.17032],[0.73627,-3.13517]],[[259.21802,219.71069],[0.04297,3.36607],[0,-3.50672]],[[258.28129,209.47062],[0.04033,3.31998],[0.03797,-1.88729]],[[262.40819,206.16254],[-1.30555,0.89915],[1.27928,-0.88106]],[[266.1694,202.92356],[-1.38017,0.90962],[1.88354,-0.95116]],[[272.08518,199.16594],[-2.1198,0.46663],[1.2976,-0.28564]],[[275.395,200.09672],[-1.1878,0.01933],[4.35382,0.00547]],[[276.91839,193.33419],[2.54883,2.45122],[-1.46249,-1.38301]],[[270.71202,193.04327],[1.08442,-3.08689],[-0.21422,0.6098]],[[270.72624,195.4524],[0.00026,-0.6573],[-0.02995,3.59793]],[[264.19185,203.19509],[2.82375,-1.4746],[-1.44651,0.92934]],[[256.91242,204.88987],[1.7174,1.13342],[-0.81321,-0.53669]],[[255.25202,202.31107],[0.43057,0.86113],[-1.25474,-2.55414]],[[250.61376,193.50131],[2.21876,2.13665],[-1.41379,-0.73374]],[[246.50592,190.81506],[1.38935,0.82335],[-1.4471,-0.85756]],[[241.19735,189.91825],[1.60695,0.32523],[-2.62144,-0.5423]],[[230.98206,190.54072],[2.44838,-0.93445],[-1.90345,0.21271]],[[225.94519,193.63569],[1.45132,-1.45919],[0.02664,0.03598]],[[225.99009,193.78852],[0,-0.06755],[0,0.25]],[225.74009,194.03852],[[225.75336,193.83004],[0,0],[-0.00089,0.00091]],[[225.75069,193.83277],[0.00089,-0.00091],[-0.10816,0.77169]],[[224.57259,195.73936],[0.31001,-0.94781],[-0.66481,2.03252]],[[222.49832,201.13928],[1.13194,-1.84081],[-1.02472,1.08858]],[[219.18551,204.00698],[1.20734,-0.73334],[0.00771,0.02505]],[[219.19767,204.09428],[0,-0.03335],[0,0.25]],[[218.94767,204.34428],[0,0],[-0.12593,0]],[[218.57304,204.34534],[0.12386,-0.00097],[-0.18535,0.09215]],[[218.00766,204.59739],[0.19165,-0.0756],[0.01733,-0.08022]],[[218.05803,204.35674],[-0.01624,0.08021],[-0.09521,0.0039]],[[217.77379,204.37247],[0.09431,-0.00672],[-2.57803,1.17866]],[[209.51807,203.41932],[2.36836,0.72044],[-0.54542,-0.61716]],[[207.49981,201.88324],[0.54426,0.66223],[-0.74609,-0.90781]],[[204.76198,198.00883],[2.84919,-1.95272],[-0.39878,0.27331]],[[203.62526,198.91875],[0.3424,-0.34071],[-2.33212,1.93652]],[[199.635,206.89754],[-2.15112,-3.30975],[0.94657,2.35145]],[[205.7885,205.49021],[-1.35446,0.32689],[0.90198,-0.21769]],[[208.84458,205.48384],[-0.93089,0],[3.21404,0]],[[216.70222,208.75671],[-2.2551,-2.2242],[0.05029,-0.12716]],[[216.85097,208.37463],[-0.04885,0.12755],[0.84408,0.43855]],[[218.49791,210.14831],[-0.29597,-0.7261],[0.03099,0.01561]],[[218.59103,210.19467],[-0.03109,-0.01529],[0,0]]],&quot;closed&quot;:true,&quot;fillColor&quot;:[0,0,0,1],&quot;strokeWidth&quot;:0.5}]}" fill="#d4cd1f" stroke-width="0.25"/><path d="M223.34205,237.36954c-2.88325,-0.00012 -6.22502,-0.01383 -8.83791,-1.36289c-3.45138,-1.78201 -4.53061,-5.01389 -4.69611,-8.81432c-1.10476,-2.56945 -2.47365,-7.22355 -5.23845,-8.5763c-0.95529,-0.48392 -1.77606,-1.15722 -2.20426,-2.15885c-0.08882,-0.20777 -0.49144,-1.54712 -0.75558,-1.56857c-1.216,-0.09878 -1.51169,3.8981 -1.16774,4.58301c0.01236,0.37711 0.41605,1.90835 0.17894,2.13185c-0.75702,0.71359 -3.00558,-2.30972 -4.36645,-1.81316c-0.54621,0.1993 -0.2444,2.61368 -0.24908,3.09922c0.58729,1.53994 2.33484,1.31202 3.57199,1.73114l0.47331,0.05081c0.12692,0.01197 0.22623,0.11883 0.22623,0.24888c0,0.13709 -0.11034,0.2484 -0.24705,0.24998l-0.49953,0.00674l-0.00079,-0.05868l-0.02646,-0.00284l0.00268,-0.02497l-0.03044,0.0204c-0.04808,-0.01677 -0.09637,-0.03277 -0.14481,-0.0481c-1.51116,0.05497 -3.7551,-0.25811 -4.46339,0.6881c-0.9464,1.26432 1.43141,2.50022 2.24953,2.67203c1.51036,0.04197 3.39057,-1.03037 4.82527,-0.6806c1.35632,0.33066 3.07968,2.86078 3.73715,4.08535c1.4162,1.84447 2.38378,3.90379 3.64111,5.85855c0.53158,0.82644 0.99333,2.3197 1.77078,2.72152c2.41211,2.3103 6.08284,3.22534 9.3403,3.25878c2.28034,-0.95369 3.83901,-3.95832 2.91076,-6.29707zM223.14664,236.86954c0.00055,-0.07058 0.02935,-0.15577 0.14428,-0.21018c0.22596,-0.10697 0.33293,0.11899 0.33293,0.11899l0.07477,0.15794c1.26013,2.66428 -0.51175,6.16543 -3.17144,7.22104c-3.35278,0.02839 -7.2708,-0.95377 -9.73784,-3.35074c-2.25568,-1.43201 -3.7643,-6.40775 -5.52998,-8.70713c-0.60554,-1.12056 -2.22427,-3.55828 -3.4392,-3.8721c-1.33227,-0.34413 -3.32022,0.73775 -4.76232,0.69219c-0.54344,-0.11323 -1.01187,-0.25139 -1.49752,-0.52905c-2.73693,-1.56479 -0.70192,-3.42821 1.49169,-3.90624c-0.64642,-0.24293 -1.19871,-0.64854 -1.53794,-1.50209c-0.00667,-0.84964 -0.41066,-3.20776 0.54274,-3.65113c0.92929,-0.43216 2.3332,0.43753 2.92246,0.97928c0.10369,0.09533 1.25264,0.98767 1.28812,0.93959c0.00123,-0.00167 -0.30912,-1.44689 -0.31074,-1.65816c-0.49287,-0.99 -0.0124,-5.24717 1.67208,-5.20279c0.66519,0.01753 2.14201,3.27638 3.16446,3.77985c2.92723,1.49011 4.3229,6.153 5.50199,8.91089c0.20115,3.66706 1.09325,6.7556 4.43835,8.48268c2.48095,1.28094 5.65488,1.30676 8.41311,1.30716z" fill="#000000" stroke-width="0.5"/><path d="M223.3855,237.39429c0.92825,2.33875 -0.64299,5.35796 -2.92333,6.31165c-3.25746,-0.03344 -6.9504,-0.93856 -9.36251,-3.24886c-0.77745,-0.40182 -1.24675,-1.89434 -1.77833,-2.72078c-1.25733,-1.95476 -2.26624,-4.03435 -3.68244,-5.87882c-0.65747,-1.22457 -2.38952,-3.79484 -3.74584,-4.1255c-1.4347,-0.34977 -3.31589,0.72946 -4.82625,0.68749c-0.81812,-0.17181 -3.19459,-1.41616 -2.24819,-2.68048c0.70829,-0.94621 2.95483,-0.64088 4.46599,-0.69585c0.04844,0.01533 0.09675,0.03127 0.14483,0.04804l0.0305,-0.02053l0.08907,0.06475l0.02645,0.00287l-0.09108,0.01917l0.49994,-0.00767c0.13671,-0.00158 0.24776,-0.1144 0.24776,-0.25149c0,-0.13005 -0.00985,-0.19222 -0.13677,-0.20419l-0.47296,-0.05152c-1.23715,-0.41912 -3.07461,-0.23498 -3.6619,-1.77492c0.00468,-0.48554 -0.29243,-2.9077 0.25378,-3.107c1.36087,-0.49656 3.61255,2.52292 4.36957,1.80933c0.23711,-0.2235 -0.16261,-1.75868 -0.17497,-2.13579c-0.34395,-0.68491 -0.03826,-4.68868 1.17774,-4.5899c0.26414,0.02145 0.66659,1.36089 0.75541,1.56866c0.4282,1.00163 1.25264,1.67318 2.20793,2.1571c2.7648,1.35275 4.1688,6.00526 5.27356,8.57471c0.1655,3.80043 1.1981,7.04079 4.64948,8.8228c2.61289,1.34906 5.94241,1.3771 8.82566,1.37722z" data-paper-data="{&quot;noHover&quot;:false,&quot;origItem&quot;:[&quot;Path&quot;,{&quot;applyMatrix&quot;:true,&quot;segments&quot;:[[[232.00824,211.13671],[0,0],[-2.88325,-0.00012]],[[223.17033,209.77382],[2.61289,1.34906],[-3.45138,-1.78201]],[[218.47422,200.9595],[0.1655,3.80043],[-1.10476,-2.56945]],[[213.23577,192.3832],[2.7648,1.35275],[-0.95529,-0.48392]],[[211.03151,190.22435],[0.4282,1.00163],[-0.08882,-0.20777]],[[210.27593,188.65578],[0.26414,0.02145],[-1.216,-0.09878]],[[209.10819,193.23879],[-0.34395,-0.68491],[0.01236,0.37711]],[[209.28713,195.37064],[0.23711,-0.2235],[-0.75702,0.71359]],[[204.92068,193.55748],[1.36087,-0.49656],[-0.54621,0.1993]],[[204.6716,196.6567],[0.00468,-0.48554],[0.58729,1.53994]],[[208.24359,198.38784],[-1.23715,-0.41912],[0,0]],[[208.7169,198.43865],[0,0],[0.12692,0.01197]],[[208.94313,198.68753],[0,-0.13005],[0,0.13709]],[[208.69608,198.93751],[0.13671,-0.00158],[0,0]],[208.19655,198.94425],[208.19576,198.88557],[208.1693,198.88273],[208.17198,198.85776],[[208.14154,198.87816],[0,0],[-0.04808,-0.01677]],[[207.99673,198.83006],[0.04844,0.01533],[-1.51116,0.05497]],[[203.53334,199.51816],[0.70829,-0.94621],[-0.9464,1.26432]],[[205.78287,202.19019],[-0.81812,-0.17181],[1.51036,0.04197]],[[210.60814,201.50959],[-1.4347,-0.34977],[1.35632,0.33066]],[[214.34529,205.59494],[-0.65747,-1.22457],[1.4162,1.84447]],[[217.9864,211.45349],[-1.25733,-1.95476],[0.53158,0.82644]],[[219.75718,214.17501],[-0.77745,-0.40182],[2.41211,2.3103]],[[229.09748,217.43379],[-3.25746,-0.03344],[2.28034,-0.95369]],[[232.00824,211.13672],[0.92825,2.33875],[0,0]]],&quot;closed&quot;:true,&quot;fillColor&quot;:[0,0,0],&quot;strokeWidth&quot;:0.5}]}" fill="#d4cd1f" stroke-width="0.25"/><path d="M256.67168,240.84001l0.00331,0.03036c0.05765,0.75786 1.13455,2.08348 2.1128,2.69708c1.20951,0.18096 2.95522,0.09451 3.50123,0.09445c3.27041,-0.00102 7.11167,-0.41467 10.02353,-1.88754c2.79658,-1.49782 4.02247,-5.99218 4.00366,-8.93698c0.00002,-0.75137 -0.38687,-3.21044 0.35534,-3.66137c0.35609,-0.21634 2.04691,0.19845 2.5688,0.1984c1.77479,-0.00016 2.54363,-0.15944 4.09129,-0.96389c0.39218,-0.23402 2.07298,-1.88564 0.85508,-2.30191c-1.83482,-0.62712 -3.95707,0.20931 -5.91648,-0.26478l-0.00961,0.07111l-0.492,-0.06651c-0.12393,-0.01482 -0.22,-0.1203 -0.22,-0.24822c0,-0.12726 0.09509,-0.23231 0.21809,-0.24798l0.47293,-0.06797c0.61471,-0.21842 1.15848,-0.49382 1.67302,-0.89588c0.4059,-0.21572 1.34135,-0.63544 1.58936,-0.9899c0.78548,-1.12265 -3.24555,-2.26835 -3.92097,-1.95511c-0.48216,0.22361 -0.98876,0.746 -1.47338,1.18593l0.04796,0.0459l-0.34538,0.36089c-0.04553,0.04774 -0.10976,0.07749 -0.18094,0.07749c-0.13807,0 -0.25,-0.11193 -0.25,-0.25v-0.5c-0.00002,-1.22212 -0.0674,-4.16904 -1.30409,-4.93192c-1.377,-0.84943 -1.94346,2.97161 -1.94346,3.52659c0,3.49677 -0.20661,7.00785 -0.24341,10.46916c-0.07858,3.31387 -2.63262,7.56805 -6.33859,7.58166c-2.98831,-0.00026 -5.72333,-0.45599 -8.41469,-1.72741c-0.45711,0.45027 -1.1859,0.51932 -1.40164,1.04642c0.15081,0.76882 0.38619,1.54165 0.67709,2.28919c0.23512,-0.01608 0.26114,0.22274 0.26114,0.22274zM259.95226,244.14619c0,0.25 -0.25,0.25 -0.25,0.25c-0.87625,-0.01176 -2.04427,-0.93822 -2.79349,-1.94384c-0.86101,-0.92725 -1.39419,-2.28515 -1.66968,-4.19913c0.36631,-0.67803 1.10194,-0.7426 1.48548,-1.18277c-0.05776,-0.05008 -0.13051,-0.14906 -0.05657,-0.29694c0.1118,-0.22361 0.33541,-0.1118 0.33541,-0.1118c0.00061,0.00031 0.00122,0.00061 0.00184,0.00092c0.05524,-0.03394 0.13271,-0.05076 0.23239,-0.00092c0.09668,0.04834 0.13066,0.11759 0.13808,0.18062c2.61792,1.23139 5.26692,1.66648 8.17411,1.66674c3.42737,0.01449 5.76968,-4.06867 5.83863,-7.09014c0.03673,-3.45929 0.24334,-6.96648 0.24334,-10.46069c0,-1.03987 0.70534,-4.98566 2.68341,-3.96525c1.38829,0.71616 1.55271,3.7956 1.56351,5.20612c1.43565,-2.85737 9.21919,0.01947 4.30591,2.60885c-0.34385,0.26858 -0.70208,0.48144 -1.08225,0.66022c0.40928,0.05013 0.83436,0.15124 1.18001,0.15351c1.06548,0.00699 3.12892,-0.40283 4.09207,0.02349c1.66996,0.73917 0.02809,2.67684 -0.79577,3.20005c-1.60126,0.83367 -2.50927,1.02901 -4.33827,1.02917c-0.37846,0.00003 -2.14916,-0.3688 -2.31109,-0.26996c-0.41952,0.25605 -0.11309,2.75289 -0.1131,3.23294c-0.01745,3.18084 -1.28056,7.74731 -4.27182,9.37998c-2.9819,1.50864 -6.90812,1.94348 -10.25527,1.94454c-0.89758,0.00009 -1.69731,-0.06083 -2.40704,-0.1968c0.03968,0.03698 0.07017,0.09379 0.07017,0.18109z" fill="#000000" stroke-width="0.5"/><path d="M256.63197,240.87041c0,0 -0.02661,-0.23961 -0.26173,-0.22353c-0.2909,-0.74754 -0.52995,-1.52615 -0.68076,-2.29497c0.21574,-0.5271 1.03284,-0.64307 1.48995,-1.09334c2.69136,1.27142 5.40591,1.7063 8.39422,1.70656c3.70597,-0.01361 6.19222,-4.24777 6.2708,-7.56164c0.0368,-3.46131 0.27729,-6.8995 0.27729,-10.39626c0,-0.55498 0.59078,-4.47292 1.96779,-3.62349c1.23669,0.76288 1.31672,3.7156 1.31674,4.93771l0.00122,0.5008c0,0.13807 0.11347,0.2511 0.25155,0.2511c0.07118,0 0.13583,-0.02944 0.18136,-0.07718l0.28489,-0.28126l0.0125,-0.12555c0.48462,-0.43993 0.99277,-0.9611 1.47493,-1.18471c0.67542,-0.31324 4.71717,0.84461 3.93169,1.96726c-0.24801,0.35446 -1.26818,0.8273 -1.67408,1.04303c-0.51454,0.40206 -1.05795,0.67803 -1.67265,0.89646l-0.47233,0.06887c-0.123,0.01567 -0.13505,0.06501 -0.13505,0.19227c0,0.12792 0.09706,0.23496 0.22099,0.24977l0.49286,0.06796l0.00946,-0.07137c1.95941,0.47409 4.08603,-0.35236 5.92085,0.27475c1.2179,0.41627 -0.46123,2.07501 -0.85341,2.30902c-1.54766,0.80445 -2.41551,0.9777 -4.19029,0.97786c-0.52189,0.00005 -2.11409,-0.43084 -2.47018,-0.2145c-0.74221,0.45093 -0.3576,2.93778 -0.35762,3.68915c0.01881,2.9448 -1.2445,7.47047 -4.04108,8.96829c-2.91186,1.47287 -6.78812,1.88028 -10.05852,1.8813c-0.54601,0.00006 -2.29887,0.08132 -3.50838,-0.09964c-0.97825,-0.6136 -2.06195,-1.94646 -2.1196,-2.70432l-0.00336,-0.03042z" data-paper-data="{&quot;noHover&quot;:false,&quot;origItem&quot;:[&quot;Path&quot;,{&quot;applyMatrix&quot;:true,&quot;segments&quot;:[[456.66169,424.99838],[[456.66831,425.0591],[0,0],[0.1153,1.51572]],[[460.89391,430.45326],[-1.9565,-1.2272],[2.41902,0.36192]],[[467.89637,430.64216],[-1.09202,0.00012],[6.54082,-0.00204]],[[487.94343,426.86708],[-5.82372,2.94574],[5.59316,-2.99564]],[[495.95075,408.99312],[0.03762,5.8896],[0.00004,-1.50274]],[[496.66143,401.67038],[-1.48442,0.90186],[0.71218,-0.43268]],[[501.79903,402.06718],[-1.04378,0.0001],[3.54958,-0.00032]],[[509.98161,400.1394],[-3.09532,1.6089],[0.78436,-0.46804]],[[511.69177,395.53558],[2.4358,0.83254],[-3.66964,-1.25424]],[[499.85881,395.00602],[3.91882,0.94818],[0,0]],[499.83959,395.14824],[[498.85559,395.01522],[0,0],[-0.24786,-0.02964]],[[498.41559,394.51878],[0,0.25584],[0,-0.25452]],[[498.85177,394.02282],[-0.246,0.03134],[0,0]],[[499.79763,393.88688],[0,0],[1.22942,-0.43684]],[[503.14367,392.09512],[-1.02908,0.80412],[0.8118,-0.43144]],[[506.32239,390.11532],[-0.49602,0.70892],[1.57096,-2.2453]],[[498.48045,386.2051],[1.35084,-0.62648],[-0.96432,0.44722]],[[495.53369,388.57696],[0.96924,-0.87986],[0,0]],[495.62961,388.66876],[[494.93885,389.39054],[0,0],[-0.09106,0.09548]],[[494.57697,389.54552],[0.14236,0],[-0.27614,0]],[[494.07697,389.04552],[0,0.27614],[0,0]],[[494.07697,388.04552],[0,0],[-0.00004,-2.44424]],[[491.46879,378.18168],[2.47338,1.52576],[-2.754,-1.69886]],[[487.58187,385.23486],[0,-1.10996],[0,6.99354]],[[487.09505,406.17318],[0.0736,-6.92262],[-0.15716,6.62774]],[[474.41787,421.3365],[7.41194,-0.02722],[-5.97662,-0.00052]],[[457.58849,417.88168],[5.38272,2.54284],[-0.91422,0.90054]],[[454.78521,419.97452],[0.43148,-1.0542],[0.30162,1.53764]],[[456.13939,424.5529],[-0.5818,-1.49508],[0.47024,-0.03216]],[456.66167,424.99838]],&quot;closed&quot;:true,&quot;fillColor&quot;:[0,0,0],&quot;strokeWidth&quot;:0.5}]}" fill="#d4cd1f" stroke-width="0.25"/><path d="M230.56818,279.98212c1.10627,-0.53517 2.34758,0.18121 3.5132,0.26643c3.16248,1.56794 0.87256,5.29058 -0.92719,6.94992c-0.55891,0.5153 -1.75606,0.42937 -2.46821,0.75737c-0.99437,0.06287 -1.20915,0.96822 -2.12735,1.17081c-3.78767,0.83567 -3.53696,-3.37782 -3.53696,-5.83386c0,-2.77291 -0.98772,-7.93583 0.24085,-10.39678c-0.03288,-2.19557 -0.18499,-4.9135 2.49313,-5.5701c0.95055,-0.23305 1.55778,0.46705 2.41853,0.46111c0.00024,-0.07289 0.00037,-0.14577 0.00037,-0.21864c0,0 0,-0.25 0.25,-0.25c0.25,0 0.25,0.25 0.25,0.25c0,2.96783 -0.21473,5.96584 -0.2308,8.89228c-0.0087,1.21508 -0.0117,2.43027 -0.01193,3.64549zM227.87743,267.81084c-2.46494,0.63103 -2.10449,3.20932 -2.12819,5.19957c-1.20716,2.4339 -0.22759,7.53977 -0.22759,10.28237c0,0.7577 -0.40482,4.25596 0.34394,4.65617c2.07945,1.11146 2.51554,-0.03315 4.08892,-0.3893c-0.0142,-0.04549 -0.0142,-0.08244 -0.0142,-0.08244c0,-0.16667 0,-0.50444 0,-0.67111c0,-3.44945 -0.02125,-6.89968 0.00343,-10.34904c0.02342,-2.69197 0.19887,-5.43798 0.22699,-8.17065c-0.81006,-0.02143 -1.45234,-0.69087 -2.2933,-0.47558zM230.56109,287.47168c0.56576,-0.27159 1.8496,-0.21859 2.24421,-0.63137c1.37154,-1.43473 3.9146,-4.66687 1.14264,-6.10989c-0.99369,-0.06918 -2.24299,-0.77683 -3.15615,-0.30108l-0.19427,0.20172c0,0 -0.0705,0.06758 -0.16562,0.07419c0.00101,2.03367 0.00841,4.0674 0.00841,6.10087c0,0.16667 0,0.33333 0,0.5v0.17111c0,0 0,0.00158 -0.00013,0.00449c0.03963,-0.00387 0.07992,-0.00722 0.12091,-0.01003z" fill="#000000" stroke-width="0.5"/><path d="M230.41273,287.52349c0.00013,-0.00291 0.0001,-0.00451 0.0001,-0.00451l-0.00093,-0.17174c0,-0.16667 -0.00302,-0.33559 -0.00302,-0.50226c0,-2.03346 -0.00599,-4.14607 -0.00699,-6.17974c0.09511,-0.00661 0.16745,-0.0755 0.16745,-0.0755l0.19717,-0.20355c0.91316,-0.47574 2.20475,0.22802 3.19845,0.2972c2.77196,1.44302 0.2118,4.77218 -1.15974,6.20691c-0.39461,0.41279 -1.70487,0.35218 -2.27062,0.62377c-0.04099,0.00281 -0.08223,0.00555 -0.12186,0.00942z" data-paper-data="{&quot;noHover&quot;:false,&quot;origItem&quot;:[&quot;Path&quot;,{&quot;applyMatrix&quot;:true,&quot;segments&quot;:[[[230.56109,287.47168],[-0.04099,0.00281],[0.56576,-0.27159]],[[232.8053,286.84031],[-0.39461,0.41279],[1.37154,-1.43473]],[[233.94794,280.73042],[2.77196,1.44302],[-0.99369,-0.06918]],[[230.79178,280.42933],[0.91316,-0.47574],[0,0]],[230.59752,280.63105],[[230.4319,280.70524],[0.09511,-0.00661],[0.00101,2.03367]],[[230.44031,286.80611],[0,-2.03346],[0,0.16667]],[[230.44031,287.30611],[0,-0.16667],[0,0]],[230.44031,287.47722],[[230.44018,287.48171],[0.00013,-0.00291],[0.03963,-0.00387]]],&quot;closed&quot;:true}]}" fill="#2f41ff" stroke-width="0.5"/><path d="M230.18314,268.23799c-0.02812,2.73267 -0.17534,5.49798 -0.19876,8.18995c-0.02469,3.44935 -0.0314,6.97709 -0.0314,10.42654c0,0.16667 -0.00085,0.50466 -0.00085,0.67132c0,0 -0.00003,0.03696 0.01418,0.08244c-1.57338,0.35615 -2.03022,1.50136 -4.10966,0.3899c-0.74875,-0.40021 -0.354,-3.90142 -0.354,-4.65912c0,-2.7426 -0.97814,-7.94152 0.22903,-10.37543c0.0237,-1.99025 -0.31811,-4.57172 2.14683,-5.20275c0.84097,-0.21529 1.49458,0.4557 2.30464,0.47713z" data-paper-data="{&quot;noHover&quot;:false,&quot;origItem&quot;:[&quot;Path&quot;,{&quot;applyMatrix&quot;:true,&quot;segments&quot;:[[[227.87743,267.81084],[0.84097,-0.21529],[-2.46494,0.63103]],[[225.74924,273.01041],[0.0237,-1.99025],[-1.20716,2.4339]],[[225.52165,283.29278],[0,-2.7426],[0,0.7577]],[[225.86559,287.94895],[-0.74875,-0.40021],[2.07945,1.11146]],[[229.95451,287.55965],[-1.57338,0.35615],[-0.0142,-0.04549]],[[229.94031,287.47722],[0,0],[0,-0.16667]],[[229.94031,286.80611],[0,0.16667],[0,-3.44945]],[[229.94374,276.45707],[-0.02469,3.44935],[0.02342,-2.69197]],[[230.17073,268.28642],[-0.02812,2.73267],[-0.81006,-0.02143]]],&quot;closed&quot;:true}]}" fill="#d4cd1f" stroke-width="0.5"/><path d="M132.03563,222.36358c0,-0.13807 0.11193,-0.25 0.25,-0.25c0.13807,0 0.25,0.11193 0.25,0.25c0,0.13807 -0.11193,0.25 -0.25,0.25c-0.13807,0 -0.25,-0.11193 -0.25,-0.25z" fill="#d4cd1f" stroke-width="0.5"/><path d="M247.04504,281.00035c1.10628,-0.53517 2.34759,0.18121 3.5132,0.26643c3.16248,1.56794 0.87256,5.29058 -0.9272,6.94991c-0.55891,0.51531 -1.75606,0.42937 -2.46821,0.75737c-0.99437,0.06287 -1.20915,0.96822 -2.12735,1.17081c-3.78767,0.83567 -3.53697,-3.37782 -3.53697,-5.83386c0,-2.77291 -0.98772,-7.93583 0.24086,-10.39678c-0.03287,-2.19557 -0.18499,-4.9135 2.49313,-5.5701c0.95056,-0.23305 1.55778,0.46705 2.41852,0.46111c0.00024,-0.07289 0.00037,-0.14577 0.00037,-0.21864c0,0 0,-0.25 0.25,-0.25c0.25,0 0.25,0.25 0.25,0.25c0,2.96783 -0.21473,5.96584 -0.23081,8.89228c-0.0087,1.21508 -0.0117,2.43027 -0.01192,3.6455zM244.35429,268.82907c-2.46493,0.63103 -2.10449,3.20932 -2.12819,5.19957c-1.20717,2.4339 -0.22759,7.53977 -0.22759,10.28237c0,0.7577 -0.40481,4.25597 0.34394,4.65617c2.07944,1.11146 2.51554,-0.03314 4.08892,-0.3893c-0.01421,-0.04549 -0.0142,-0.08244 -0.0142,-0.08244c0,-0.16667 0,-0.50444 0,-0.67111c0,-3.44945 -0.02126,-6.89969 0.00343,-10.34904c0.02342,-2.69196 0.19887,-5.43797 0.22699,-8.17064c-0.81006,-0.02143 -1.45233,-0.69088 -2.2933,-0.47559zM247.03795,288.48991c0.56575,-0.27159 1.8496,-0.21859 2.2442,-0.63137c1.37154,-1.43473 3.91459,-4.66687 1.14264,-6.10989c-0.9937,-0.06918 -2.24299,-0.77683 -3.15615,-0.30108l-0.19427,0.20172c0,0 -0.0705,0.06757 -0.16561,0.07419c0.00101,2.03367 0.00841,4.06741 0.00841,6.10086c0,0.16667 0,0.33333 0,0.5v0.17111c0,0 -0.00001,0.00158 -0.00013,0.00449c0.03963,-0.00387 0.07992,-0.00722 0.12091,-0.01002z" fill="#000000" stroke-width="0.5"/><path d="M246.88959,288.54173c0.00012,-0.00291 0.0001,-0.00451 0.0001,-0.00451l-0.00094,-0.17174c0,-0.16667 -0.00302,-0.33559 -0.00302,-0.50226c0,-2.03346 -0.00598,-4.14607 -0.00699,-6.17973c0.09511,-0.00662 0.16745,-0.07551 0.16745,-0.07551l0.19717,-0.20355c0.91316,-0.47575 2.20475,0.22803 3.19844,0.29721c2.77195,1.44302 0.2118,4.77218 -1.15974,6.20691c-0.39461,0.41278 -1.70487,0.35217 -2.27062,0.62377c-0.04099,0.00281 -0.08223,0.00556 -0.12185,0.00942z" data-paper-data="{&quot;noHover&quot;:false,&quot;origItem&quot;:[&quot;Path&quot;,{&quot;applyMatrix&quot;:true,&quot;selected&quot;:true,&quot;segments&quot;:[[[461.12218,574.94336],[-0.08198,0.00561],[1.13151,-0.54319],7],[[465.61059,573.68061],[-0.78921,0.82557],[2.74308,-2.86946],7],[[467.89587,561.46083],[5.54391,2.88604],[-1.98739,-0.13836],7],[[461.58357,560.85867],[1.82632,-0.95149],[0,0],7],[[461.19503,561.2621],[0,0],[0,0],7],[[460.8638,561.41048],[0.19022,-0.01323],[0.00202,4.06734],7],[[460.88062,573.61221],[0,-4.06692],[0,0.33333],7],[[460.88062,574.61221],[0,-0.33333],[0,0],7],[[460.88062,574.95443],[0,0],[0,0],7],[[460.88036,574.96341],[0.00025,-0.00582],[0.07925,-0.00773],7]],&quot;closed&quot;:true}]}" fill="#2f41ff" stroke-width="0.5"/><path d="M246.66,269.25622c-0.02812,2.73267 -0.17534,5.49799 -0.19876,8.18995c-0.02469,3.44935 -0.0314,6.97709 -0.0314,10.42654c0,0.16667 -0.00085,0.50466 -0.00085,0.67133c0,0 -0.00003,0.03696 0.01417,0.08245c-1.57338,0.35616 -2.03021,1.50135 -4.10966,0.38989c-0.74875,-0.40021 -0.35401,-3.90141 -0.35401,-4.65911c0,-2.7426 -0.97814,-7.94153 0.22903,-10.37543c0.0237,-1.99025 -0.31811,-4.57172 2.14683,-5.20275c0.84097,-0.21529 1.49458,0.4557 2.30464,0.47713z" data-paper-data="{&quot;noHover&quot;:false,&quot;origItem&quot;:[&quot;Path&quot;,{&quot;applyMatrix&quot;:true,&quot;selected&quot;:true,&quot;segments&quot;:[[[455.75486,535.62168],[1.68193,-0.43058],[-4.92987,1.26206],7],[[451.49848,546.02082],[0.0474,-3.98049],[-2.41433,4.8678],7],[[451.0433,566.58556],[0,-5.4852],[0,1.5154],7],[[451.73118,575.8979],[-1.49751,-0.80041],[4.15889,2.22292],7],[[459.90902,575.11931],[-3.14676,0.71231],[-0.02841,-0.09098],7],[[459.88062,574.95443],[0,0],[0,-0.33333],7],[[459.88062,573.61221],[0,0.33333],[0,-6.8989],7],[[459.88748,552.91414],[-0.04937,6.8987],[0.04684,-5.38393],7],[[460.34146,536.57285],[-0.05624,5.46534],[-1.62012,-0.04287],7]],&quot;closed&quot;:true}]}" fill="#d4cd1f" stroke-width="0.5"/></g></g></svg>