/* XPM */
static char * wall1_xpm[] = {
"64 64 53 1",
" 	c #464646",
".	c #B4B4B4",
"+	c #000000",
"@	c #A2CBD6",
"#	c #99D9EA",
"$	c #B1B8BC",
"%	c #9CD4E3",
"&	c #AFBCC3",
"*	c #A1CDD9",
"=	c #9CD4E5",
"-	c #9AD9EB",
";	c #9BD9EC",
">	c #98DAEB",
",	c #A0CFDB",
"'	c #A2CDDD",
")	c #9CD4E4",
"!	c #9BD5E4",
"~	c #9BD6E6",
"{	c #A1CEDD",
"]	c #9AD7E7",
"^	c #A2CCDA",
"/	c #A0D0DE",
"(	c #9FD0DE",
"_	c #A2CEDE",
":	c #ADC0CA",
"<	c #B0BDC4",
"[	c #9AD7E8",
"}	c #9DD4E3",
"|	c #AEC0CA",
"1	c #99D8E9",
"2	c #9DD4E5",
"3	c #9BD7E6",
"4	c #A2CFE1",
"5	c #9BD9EE",
"6	c #9DD9F0",
"7	c #9ED5E8",
"8	c #9BD9ED",
"9	c #99D8EA",
"0	c #9AD8EB",
"a	c #9CD9EE",
"b	c #A1CFDC",
"c	c #9AD9E9",
"d	c #99D7E7",
"e	c #9BD6E5",
"f	c #A0D2E4",
"g	c #9DD4E6",
"h	c #9BD7E9",
"i	c #9CD8E9",
"j	c #9CD5E5",
"k	c #A9C5D4",
"l	c #9BD5E5",
"m	c #9AD8E9",
"n	c #98D9E9",
" .  ...  ...  ++++++++++++++++++++++++++++++++++++++++++++++++++",
"   .     ..   ++++++++++++++++++++++++++++++++++++++++++++++++++",
".            .++.@..#.@.$..$.$...@.......@.....$.$.....$%.....++",
".    .      .  +..$###.@$$..$$.@@.$#.@.&@..#.*.$$$.@.$$%..#.@.++",
".   ..   .  .  +.$#####*$$.@.@$...###$@...###$@@.@$.$$.@.###.@++",
"     ..      .++.$@###$.@@.$@..#.#####@@.#####@.@..#.%.$#####@++",
"  .     .    .++@@..#.=.*..#.@##-.###@..$.###..#.@###.@;.###..++",
"..      ..   .++..@#>#.@#.########@#@$.#.@.#.$###########.#.&.++",
".   .  ..      +..##-#######-####@@,..###@%,.###-##########...++",
".  .  ..   ..  +.$.###-#-####$.#.$$$.#####@$$@###..#$$---.'.%)++",
"            ..++@...#$$###.#.)@,....$.###..@...#.*@!$..#@$....++",
"    .   ..  ..++..@*~.@.#**,@..-.%@{...#.&...@@,$..&$%]!.$#.@.++",
".      ..      +....^.%%,..$.@###$@..@@/......$$.@@.@..$.###.@++",
".  .  ...      +...@..#.*.^@.###--@@..&&.%@.$$$.@..*..#.#--##@++",
".....  ....  .++.....###.@..$.###@.....@......@......###.###..++",
"...     .    .++...$#####@.@...#@$.#.@@$.#.@.^..#.@.#####%#.&.++",
"..           .++..$&.###$....@^,..###.@.###.@..###.^.###@^,...++",
"..    .   .  .++..@@..#.$...$..$.#####@#####@.#####@..#$$#$@@^++",
"  ..         .++..@.@#,@.$.$$.@.$$###.&.###..$.###..@@($###.^.++",
"       ..     ++....##-.%@..@..@...#$^...#.$@...#.$$..&#####@.++",
"..   .    .   ++...-####@..^..#.@**($.@@@/....@^,$..$.*.###@.$++",
".....       ..++.$$.###..$...##-.^.$@@@..$.@@$..&$@=$@*.###$@.++",
".  .    .     ++$^.@$#$$$$.@##;;#%.@$.#.@.$.$$.@.@$.@..#####@.++",
"         .    ++.@$@_,...@.$.#--.@..$###.@...^..@..#.@-$###@@.++",
"     ..      .++@$:#@*.'%.@#.@#^$#.@#####@.$@..#.@#-##-#.#.$..++",
".  .....     .++.<###.@<..###@[.###*@-##..$$.@##--###--##~.$..++",
".    ....   ..++.#####%.$#####*-####%.#.$..@.###;-####--.$.@@.++",
"..    ....  ..++$}####}@|.###$$#####%@,...@.$####*@#.*-$#@@.&.++",
"  ..  .    .  ++..###-#1$..#$'$@###$..$$@@.@####%*@#^%,-##.@..++",
"  ..          ++.*#>###2$@%,.).@@#.$.$.....###-#@.-##@#####%.$++",
".  ...  ..  ..++@<.-##*.@..$@@@#@3.4^$.@..&.-##$.--###@-###.@.++",
".   ...      .++}.*@>.<@..#.@.-##:^_@@...@.$$#@$$$###..#####@.++",
".   .        .++.$)}-.@*.###.###56@}@.<#.@.^%,.@.@.##$)@-##...++",
".  .   ..   ..++..@.<.}}#####@--57@}.$8##.@@.$#@%@^###.@$#^^..++",
".       .   ..++.@..#.@$$#-#$..#]).#.9#8##@..##-.@#####%^,....++",
".         ....++...###@@$.#$&@%!}$###}0a#...#-###*.###.$$$@@@$++",
"....  ..   .  ++..#####^^@!.@$.$.####-1#.$.$$-##@.$.#.$.@.....++",
"..  .  ..     ++.&$###.$@.$@@@#.##-#--]!..^..@#.$.@@,..*..#.@.++",
"       ..   ..++@.@.#.$@..#.@#-#<####b.$.@@.%@,#.@.$$$@@.###.@++",
"   .  .    .  ++.@@@>.@.$########]##*<.#.@.$..###@@.$$.@#####@++",
".....    ...  ++...#-#@%#-######^]cd.}###.@.$#####@..@.$.###..++",
".....   .     ++..#####'.###..-.$.$<@#####*.$.###<..@.@#.@#$$.++",
"...           ++.$.###^$.@-.'^/.@..&$.###$$@@..8.&....###@e...++",
"..     .  ....++@.$.#.$@^@,...*.@@$*.@.#$$@..@_f.}..<#####^.@@++",
".   .     ...  +.$/@e.@&$#*@@=..#.@@$@@,.@..#.^g$%@.&.##-...$.++",
"   .       ..  +.<b.2.@b###.@..###@@.#.^.*@###}%$#.].<$#.$$...++",
"        .  .  ++.@}.#.@#####%.#####@###.@.####-@###@}'^,@$$$@.++",
"..   .   .    ++.}.###2@####.^.###.#####@$.##-$####-].@$$@%...++",
"...  ..     ..++..#####]#####@$.#.&.###.@...#./#####@@$.#@@.#.++",
"..  ...      .++.$#####h@###.$*@e@$$.#.$..@@,]$.###<$$$###.###++",
"    .     .  .++@<.###*..$#^^.@.&.@%@,......$@^###.*.$########++",
"  .    .  .   ++}.@*>.<.@^,..@.$-.%.$&.@@:..$.#####[}*.##-@###++",
".      ..  .  ++.$}}i.@@&$$@@@$###.@...:$..$$$@##-$*%@.-##$@#.++",
".  ..  .   .  ++$$.@<.j}.@....#####@@.k:.]..l...#.$@.$#####%,.++",
".....  .  ....++.@...$$.%..#.^.#####.*$]@..*..#@!.^.$-.##-^@$.++",
".    .   .   .++@..#.@@$..###.@.#####@1..#.].###$@@@###.#.$...++",
".            .++..###@@.######%^,###.@..###.#####@.#####!@.$..++",
".  .  .     ..++.#####@#-####.@.$.#@$..####-]###..$.#####.%@..++",
".  .       .  ++$.###.######.$..@@,...#####@..#.$@...#####@...++",
".         ..  ++...#.&.###@,......$.@m.###.:@@,....@^,###.....++",
"    ..    .   ++.@@,@...#.$$.@@.....@..]#n$...$.@@.@.$.#@$....++",
"          .   ++...$.@%@,.............@@,:.]]........@@,......++",
".  .       ...++++++++++++++++++++++++++++++++++++++++++++++++++",
".  ...  .  ...++++++++++++++++++++++++++++++++++++++++++++++++++"};
