/* XPM */
static char * wall2_xpm[] = {
"64 64 232 2",
"  	c None",
". 	c #A8E61D",
"+ 	c #22B34D",
"@ 	c #22B24D",
"# 	c #22B34C",
"$ 	c #79D32E",
"% 	c #22B24C",
"& 	c #22B14C",
"* 	c #22B14D",
"= 	c #33B946",
"- 	c #79D42E",
"; 	c #33B945",
"> 	c #22B04D",
", 	c #33BA46",
"' 	c #33BA45",
") 	c #81D72A",
"! 	c #33B846",
"~ 	c #42C03F",
"{ 	c #21B34D",
"] 	c #32BA46",
"^ 	c #42C13F",
"/ 	c #84D929",
"( 	c #21B24D",
"_ 	c #21B14D",
": 	c #20B279",
"< 	c #42C23F",
"[ 	c #81D82A",
"} 	c #7FD72B",
"| 	c #7FD62B",
"1 	c #4FC639",
"2 	c #5ACC35",
"3 	c #84D928",
"4 	c #97DF22",
"5 	c #42BF3F",
"6 	c #65D031",
"7 	c #6DD42D",
"8 	c #8DDC25",
"9 	c #9BE221",
"0 	c #99E120",
"a 	c #42C03E",
"b 	c #64D031",
"c 	c #4FC63A",
"d 	c #9BE21F",
"e 	c #9BE121",
"f 	c #64D130",
"g 	c #4FC73A",
"h 	c #20E04C",
"i 	c #9DE31F",
"j 	c #8DDD24",
"k 	c #9DE220",
"l 	c #9DE31E",
"m 	c #8DDE25",
"n 	c #A0E51D",
"o 	c #93E122",
"p 	c #9CE41F",
"q 	c #9BE41E",
"r 	c #99E220",
"s 	c #97E022",
"t 	c #A2E41E",
"u 	c #A7E71B",
"v 	c #9CE31E",
"w 	c #A8E91B",
"x 	c #42C23E",
"y 	c #42C13E",
"z 	c #A8E71C",
"A 	c #A8E61C",
"B 	c #85DA28",
"C 	c #A8E81B",
"D 	c #89DB27",
"E 	c #99E022",
"F 	c #5BCC34",
"G 	c #32B946",
"H 	c #55C255",
"I 	c #A7E61D",
"J 	c #84DA28",
"K 	c #A2E41F",
"L 	c #9CE41E",
"M 	c #9DE51D",
"N 	c #A0E81B",
"O 	c #A8EB19",
"P 	c #A8E81A",
"Q 	c #4FC739",
"R 	c #5BCD34",
"S 	c #A6E51D",
"T 	c #85DB28",
"U 	c #A6E71C",
"V 	c #A9E91A",
"W 	c #A7E61C",
"X 	c #A8E71B",
"Y 	c #A9E71B",
"Z 	c #8DDF24",
"` 	c #A5E91A",
" .	c #A8E91A",
"..	c #A3E41F",
"+.	c #A9E61C",
"@.	c #A9E71C",
"#.	c #A6E61D",
"$.	c #9BE321",
"%.	c #A5E61D",
"&.	c #A4E51E",
"*.	c #A4E41E",
"=.	c #9BE31E",
"-.	c #A5E51D",
";.	c #64CF31",
">.	c #5ACD35",
",.	c #7ED72C",
"'.	c #9AE122",
").	c #9FE71B",
"!.	c #A5E61C",
"~.	c #99E122",
"{.	c #89DD25",
"].	c #A4E51D",
"^.	c #8BDC26",
"/.	c #9EE61D",
"(.	c #88DC26",
"_.	c #A6E61C",
":.	c #6DD52D",
"<.	c #9EE51E",
"[.	c #84DA29",
"}.	c #A5E71B",
"|.	c #9FE51E",
"1.	c #A9E81B",
"2.	c #88DB27",
"3.	c #A8E919",
"4.	c #A7E81B",
"5.	c #98E023",
"6.	c #8DDD25",
"7.	c #A0E61C",
"8.	c #A8EB17",
"9.	c #A9E919",
"0.	c #9FE41E",
"a.	c #A3E41E",
"b.	c #A4E61C",
"c.	c #A3E51D",
"d.	c #22B04C",
"e.	c #78D32E",
"f.	c #23B24C",
"g.	c #23B44C",
"h.	c #23B54C",
"i.	c #21B04D",
"j.	c #78D42E",
"k.	c #A0E31F",
"l.	c #22B14B",
"m.	c #21B04C",
"n.	c #4FC63C",
"o.	c #4AC33B",
"p.	c #7CD52B",
"q.	c #21B34C",
"r.	c #88DA27",
"s.	c #22B54C",
"t.	c #24B14C",
"u.	c #22B34B",
"v.	c #21B44C",
"w.	c #2DA84B",
"x.	c #6DCF32",
"y.	c #22B24B",
"z.	c #33B845",
"A.	c #33B844",
"B.	c #22B04B",
"C.	c #79D32D",
"D.	c #7BD42C",
"E.	c #24B34B",
"F.	c #40C04B",
"G.	c #22B24E",
"H.	c #80D52D",
"I.	c #80FF2C",
"J.	c #92E32B",
"K.	c #2EAA4B",
"L.	c #489647",
"M.	c #26AD4C",
"N.	c #31A54A",
"O.	c #9C5A3C",
"P.	c #27AC4C",
"Q.	c #26AC4C",
"R.	c #33BA44",
"S.	c #2BAB4A",
"T.	c #7ED62B",
"U.	c #78D42D",
"V.	c #81D829",
"W.	c #21B451",
"X.	c #25AE4A",
"Y.	c #22B74D",
"Z.	c #20B050",
"`.	c #3AC648",
" +	c #429B48",
".+	c #7F703F",
"++	c #4D9147",
"@+	c #479648",
"#+	c #439948",
"$+	c #23AF4C",
"%+	c #23AF4D",
"&+	c #21B24B",
"*+	c #22B54B",
"=+	c #32B845",
"-+	c #21B14C",
";+	c #78D72E",
">+	c #20DC4B",
",+	c #20B94B",
"'+	c #25B74B",
")+	c #2BAF55",
"!+	c #23B04B",
"~+	c #8C663E",
"{+	c #26B449",
"]+	c #1FB055",
"^+	c #20AF80",
"/+	c #21B852",
"(+	c #23D74B",
"_+	c #22AF4D",
":+	c #25AD4B",
"<+	c #2FA74A",
"[+	c #439B48",
"}+	c #25B04C",
"|+	c #20B94D",
"1+	c #2FA84A",
"2+	c #24AE4C",
"3+	c #27AC4B",
"4+	c #71CE31",
"5+	c #23B14C",
"6+	c #20AF79",
"7+	c #21BA4C",
"8+	c #28B14F",
"9+	c #23B04C",
"0+	c #41BD42",
"a+	c #6BCF31",
"b+	c #25AF4C",
"c+	c #1FBA4B",
"d+	c #848039",
"e+	c #26AE4C",
"f+	c #41BC42",
"g+	c #7CD42F",
"h+	c #28AD49",
"i+	c #000000",
". . . + @ + + + # # # # # # # # # . . . . . $ % & & % * @ * * @ * = @ . . . * @ * @ * - % # . # $ & ; & & & & & ; > @ + & @ > > ",
"+ . @ , @ + + + @ * @ @ + + + + , @ . . . + @ @ + + # # # # # # - # # # . # ' # % # % # # . . . % - # # # # & ; ; & - + & , ; > ",
"$ ) * > * > > ! ~ ~ + { { ] ^ / ^ ( ( . _ ] : + # # @ @ * + + + < < - - [ + + + + @ + * . . . . . - # # # # # # - # @ + ; @ & > ",
"> ! > $ $ ! ~ ~ > & > ! ~ ~ ~ * * $ $ [ + + @ + + + @ + + + < < , , ~ ^ ^ < } / ^ ~ * = * . . . * > > * @ @ + - + + . , | @ | > ",
"& & & & ; 1 2 3 4 4 5 6 7 8 9 4 0 ~ a 1 > $ $ > > > > > > ~ b c d e , f g < < ^ @ @ - + + + . @ ] ] < { h h _ ( _ . . . $ - & > ",
"& & & & & $ 4 4 & & & $ 4 4 4 & & & > > > > > > > > > > > ! e i j j k l m n o p q r < < / - [ , < + + ~ @ + { { . . . . . - . > ",
"# # # # - s s . . . t u v w . . . r q x y % % % % % # % % 4 t - z z t A B v 0 4 % * @ * * + ^ g / 9 4 * , < + , > . . . # . . . ",
"@ @ + @ + * . . . . . s A . . . . . 4 4 % % % % # % % % % - - . . . . A A z C C z C r q ~ ^ * - 9 ~ @ s + * D * * @ . * z . . . ",
"+ + + @ , . . . . . . . A . z w . . . s + + + + + + @ + + + . . . . . . A A . z . . . s s @ - s # . . $ E = F ^ - $ ) ! * . . . ",
"+ + = _ G H . . . . . ^ z w . . w . * * @ @ @ + @ + + @ + ^ w . . . . . . . . . . . . . s + + + . . . . D I $ ~ * , J + $ - . > ",
"> = , - K s @ z . z L M N O P A C Q R + + + + + + + + * 4 E = z . . . . . . . . . . . * @ + + . . . . . . e S s , ^ ~ > $ - [ > ",
"> > $ > > $ t z u i ^ T U z V u W @ @ ^ * * * * * * @ * $ $ S z X Y . . . C z C z C < < + + , < . . . . . . A ' | * | * @ , ' > ",
"& $ * * . @ - = 1 Z `  .X E . w w X U v @ @ @ * @ * * # # @ - ..u X +.. A P z @.u i + + + $ 4 * ^ . . z C . . . K t x < > > # > ",
"# # % . . . * - @ + s s - . . . . - #.+ x # + + + + + + + # + + , } $.%...I ..&.&.&.#.#.4 * * t t *.i . . w . . . t . > $ * ' @ ",
"# # . . . . . - + s s - . . . A X w r s + + + < < + + * * * @ @ * @ @ , * - $ * > > > > > & & > > r =.-.A A . . . . . . > $ > > ",
"@ , + . . . # + + + + . . . . . A . . 4 @ ^ ~ , @ @ * @ @ @ > > > ! ! ~ > & & > > * * * * , * % * > $ F ~ A A . . . . . . $ > > ",
"/ + + + . * = * @ @ . . . . . . . z * * ~ ;.~ 4 4 > ~ a & > > = = ~ * * , ~ ~ y * > > ! > > > > > > 4 4 $ $ @.z ~ . . . # @ + @ ",
">.+ - - [ @ + @ * ~ ~ z . . . . . # y * = r 4 - @ @ , @ + # , ~ c / ,.9 c c ~ * * * = = * $ + @ ' # # # s #.z i '.- . ' , @ > @ ",
"~ = * * , % - $ 4 s - + . . . ).!.t s # s t @ . . 4 s ^ ^ @ @ - - ~.g 2 8 9 4 r x x x - # # # # # # # + + + {.< &.. ].> * * + # ",
"+ < + + + + + + + + s #.z -.[ + < + s s - + . . . . s r + + } - s . . . t U , < + + - + + . + - @ , + + + } g @ . + } = | $ > # ",
"t + , @ @ + @ @ @ @ @ + < ^ r #.t - @ + + . . . . . . s , + , + . . . . . . . . r q < ^ . . . @ - * * * * ~ 8 . . . % / * @ @ + ",
"s - + @ + @ @ @ + + + * * * * * * * * @ ~ . . . . . $ = ~ * / . . . . . . . . . . 4 4 . . . . . - + + + + / . . . . . / , > @ @ ",
". $ > > ~ * @ @ + + @ @ + + + + + + + s r @ . . . < < , D + } , . . . . . . . . . . E * . . . @ + @ * * @ 0 4 . . . 4 $ ~ * * * ",
"> > ~ > ~ a ! > > > * * > > > > > > > $ > 4 #.. i ! > / / $ . 4 $ . . z z C . . . $ * @ = . * } + + , @ - s . . . . z t < # > ! ",
"' x >.x r @ @ ^ @ @ < ^ , , ^ , , , @ @ @ - - ^.^ 4 #.t 4 . . . S @.z u . . z C ^ ^ @ - - 9 + + + + + + + , . . @.. . #.> > * @ ",
"s x /.Q r s - x R Q ' ' x ' ' ' # # # # # # ' Q # - - s . . . . . r (._.A @.A i + + + + - , + . - - + , - < . . z . z K @ + + - ",
"- t s s . + s < :.g q M {.Z <.[.,./ , , ^ < + + + + + , . . . . . t + + , g / &.#.#.s + + + . . . + - + s g - . @.. ~ * @ > > > ",
"@ 4 4 . . . . #.}.|.} - 4 - - - + + + , g < - s + , T , . . . . z s + , + + + + + + + + + . . . . . - + E g s *.1.+ 2.- + * * # ",
"@ @ . . . . w 3.4.5.. . . . . . . . / ,.} E + + + + - < - . @.. , + , , + - * @ , + + + , + . . . + * @ < 6.s S 7.* e 4 * * * ! ",
"> ~ . . .  .8.w A A . w w . . . . . . 5.t > . . $ 4 0 ~ $ $ 1.> / $ > $ > > * + + @ + - + + + . + , , @ / 9 + . ~ $ e E & & $ > ",
"4 ~ ~ z z  .9.A A . z w . . . . . . . . $ . . . . $ 4 > 4 4 0.> $ $ $ ! > . & $ > ! > > * $ - [ , + + + s s . . . s - ~ % * & & ",
"4 4 t 4 . A @.F . . A A  . .z . . . . & . . . . . . 4 & & & a & 4 0 & & . . . > $ > > > @ + + Q , - 5.+ 4 . . . . . t ~ > & & & ",
"& & 4 #.z A A . . . . 1.9.. . . . . ; ~ a . . . . & & & & & & & ; ; % . . . z . $ & & # # ' > > $ @ @ @ , . . . . . #.@ > & & & ",
"% % % % y y . . . . . . A S W a.'.[ - 4 # % . . ' y % # % % % # # - ' # . . . & & & # # , ! > 5.@ @ z $ B . . . . z 4 & & % & & ",
"> > > > > . . . . . . e 0 U b.0 c.c.4 4 5.t *.i > > > > > > > * $ $ > . > . % ^ # # # @ > $ & # @ . . A ^ 5.. @.. ^ > * > > d.& ",
"> > > > 0 =.. . . . ~ ~ > > > > > > > > > > ! ~ $ t 4 > > > > > > > . . . ) $ + + + > > $ # # . . . . X . t 4 1.> 3 e.( * * * > ",
"* @ * $ 4 * 4 . . 0.^ _ ( _ _ * f.f.g.h.( ( _ ( _ _ ( _ _ _ ( i._ . . . . . j.j.j.> > > # # . . . . . . > 4 4 7.& 4 4 i.> > % & ",
"> > @ % * $ t *.k.a 4 #.4 > a . . . . . $ & * & & > > l.m.' # . z & . . . > n.& _ _ & # @ . . . . . . & ; & & o.p.4 4 q.> > & & ",
"% % @ + * > > = ~ $ t 4 * r.; > . . . ~ & > & & > > d.s.e.i.m.$ & & & . & ! & m.t.& & * ! @ . . . - [ * # # u.v.i.i.i._ > > % & ",
"@ @ > > > % # & > & & > & $ > 4 4 . & ; > % & > > d.f.m.m.w.e.x.) $ $ ) & & & & > & > $ @ @ > . y.z.A.B.C.D.# * m.i.m.E.* > & & ",
"F.> @ * > > & > & y.& G.> > * H.I.J.& 4 4 & > > d.K.L.M.N.O.P.Q.R.S.& T.% $ $ & & & > > * $ U.V.i.i.i.& i.i.m.i.m.& m.W.> > % & ",
"F.B.y.l.@ & & & & & & & F.> X.Y.Z.`.F.$ $ & > >  +.+++@+O.++++O.#+P.$+M.%+& & % & & > > * &+*+=+-+;+$ & & i.i.> & & >+,+> * & & ",
"  G.G.'+& & & & & & & & & )+  Z.i.F.Z.> & > > !+.+O.++++O.O.O.O.O.O.~+@+%+> & & & & & > {+% m.>+]+& & & & & i.^+& & & /+(+> % & ",
"          & & %   & & &       Z.Z.  Z.F._+:+<+[+O.N.N.O.O.O.O.O.O.O.O.O.Q.}+& > > & & & m.m.m.]+|+> & & &     & & & & & (+F.%   ",
"    >       >       &                   .+.+1+2+3+++O.O.O.O.O.O.O.O.O.O.P.4+m.& & & u.5+m.6+  7+F.Z.  &         & & &   Z.Z.8+  ",
"        > > 9+  > > 9+                  O.O.O.O.O.O.O.O.O.O.O.O.O.O.O.O.$+.+P.0+& a+b+m.c+    Z.Z.> > 9+  >       &             ",
"                > >     > >             O.O.O.O.O.O.O.O.O.O.O.O.O.O.O.O.N.O.$+$+d.d+e+f+g+                > > > > 9+            ",
"                                        O.O.O.O.O.O.O.O.O.O.O.O.O.O.O.O.O.O.N.N.h+O.$+$+                              > >       ",
"                                        O.O.O.O.O.O.O.O.O.O.O.O.O.O.O.O.O.O.O.O..+O.N.N.                                        ",
"                                        O.O.O.O.O.O.O.O.O.O.O.i+i+i+O.O.O.O.O.O.O.O.O.O.                                        ",
"                                        O.O.O.O.O.O.O.O.O.O.i+O.O.O.i+O.O.O.O.O.O.O.O.O.                                        ",
"                                        O.O.O.O.O.O.O.O.O.i+O.i+i+i+O.i+O.O.O.O.O.O.O.O.                                        ",
"                                        O.O.O.O.O.O.O.O.i+O.i+i+i+i+i+O.i+O.O.O.O.O.O.O.                                        ",
"                                        O.O.O.O.O.O.O.O.i+O.i+i+i+i+i+O.i+O.O.O.O.O.O.O.                                        ",
"                                        O.O.O.O.O.O.O.O.i+O.i+i+i+i+i+O.i+O.O.O.O.O.O.O.                                        ",
"                                        O.O.O.O.O.O.O.O.i+O.i+i+i+i+i+O.i+O.O.O.O.O.O.O.                                        ",
"                                        O.O.O.O.O.O.O.O.O.i+O.i+i+i+O.i+O.O.O.O.O.O.O.O.                                        ",
"                                        O.O.O.O.O.O.O.O.O.O.i+O.O.O.i+O.O.O.O.O.O.O.O.O.                                        ",
"                                        O.O.O.O.O.O.O.O.O.O.O.i+i+i+O.O.O.O.O.O.O.O.O.O.                                        ",
"                                        O.O.O.O.O.O.O.O.O.O.O.O.O.O.O.O.O.O.O.O.O.O.O.O.                                        ",
"                                        O.O.O.O.O.O.O.O.O.O.O.O.O.O.O.O.O.O.O.O.O.O.O.O.                                        ",
"                                        O.O.O.O.O.O.O.O.O.O.O.O.O.O.O.O.O.O.O.O.O.O.O.O.                                        ",
"                                        O.O.O.O.O.O.O.O.O.O.O.O.O.O.O.O.O.O.O.O.O.O.O.O.                                        ",
"                                        O.O.O.O.O.O.O.O.O.O.O.O.O.O.O.O.O.O.O.O.O.O.O.O.                                        "};
